<?xml version="1.0" encoding="utf-8"?>
<!-- Generator: Adobe Illustrator 16.0.0, SVG Export Plug-In . SVG Version: 6.00 Build 0)  -->
<!DOCTYPE svg PUBLIC "-//W3C//DTD SVG 1.1//EN" "http://www.w3.org/Graphics/SVG/1.1/DTD/svg11.dtd">
<svg version="1.1" id="Layer_1" xmlns="http://www.w3.org/2000/svg" xmlns:xlink="http://www.w3.org/1999/xlink" x="0px" y="0px"
	 width="50px" height="50px" viewBox="0 0 50 50" enable-background="new 0 0 50 50" xml:space="preserve">
<path d="M43.504,12.083H22.468l-1.066-2.256c-0.444-0.885-1.535-1.553-2.539-1.553h-7.436c-1.006,0-2.094,0.67-2.532,1.558
	l-1.108,2.251H6.574c-1.165,0-2.113,0.95-2.113,2.118v24.727c0,1.186,0.928,2.115,2.113,2.115h36.93c1.183,0,2.111-0.93,2.111-2.115
	V14.201C45.615,13.033,44.669,12.083,43.504,12.083z M33.037,28.553h-5.426v5.43c0,1.032-0.836,1.867-1.867,1.867
	s-1.868-0.835-1.868-1.867v-5.43H18.45c-1.031,0-1.867-0.835-1.867-1.867c0-1.031,0.836-1.867,1.867-1.867h5.426v-5.424
	c0-1.031,0.836-1.867,1.868-1.867s1.867,0.836,1.867,1.867v5.424h5.426c1.032,0,1.867,0.836,1.867,1.867
	C34.904,27.718,34.069,28.553,33.037,28.553z"/>
</svg>
