<?xml version="1.0" encoding="UTF-8" standalone="no"?>
<!-- Generator: Adobe Illustrator 16.0.0, SVG Export Plug-In . SVG Version: 6.00 Build 0)  -->

<svg
   xmlns:dc="http://purl.org/dc/elements/1.1/"
   xmlns:cc="http://creativecommons.org/ns#"
   xmlns:rdf="http://www.w3.org/1999/02/22-rdf-syntax-ns#"
   xmlns:svg="http://www.w3.org/2000/svg"
   xmlns="http://www.w3.org/2000/svg"
   xmlns:sodipodi="http://sodipodi.sourceforge.net/DTD/sodipodi-0.dtd"
   xmlns:inkscape="http://www.inkscape.org/namespaces/inkscape"
   version="1.1"
   id="Layer_1"
   x="0px"
   y="0px"
   width="50px"
   height="50px"
   viewBox="0 0 50 50"
   enable-background="new 0 0 50 50"
   xml:space="preserve"
   inkscape:version="0.48.2 r9819"
   sodipodi:docname="code.svg"><metadata
   id="metadata13"><rdf:RDF><cc:Work
       rdf:about=""><dc:format>image/svg+xml</dc:format><dc:type
         rdf:resource="http://purl.org/dc/dcmitype/StillImage" /></cc:Work></rdf:RDF></metadata><defs
   id="defs11" /><sodipodi:namedview
   pagecolor="#ffffff"
   bordercolor="#666666"
   borderopacity="1"
   objecttolerance="10"
   gridtolerance="10"
   guidetolerance="10"
   inkscape:pageopacity="0"
   inkscape:pageshadow="2"
   inkscape:window-width="1436"
   inkscape:window-height="856"
   id="namedview9"
   showgrid="true"
   inkscape:snap-global="false"
   inkscape:zoom="12.131875"
   inkscape:cx="31.71784"
   inkscape:cy="25"
   inkscape:window-x="4"
   inkscape:window-y="0"
   inkscape:window-maximized="1"
   inkscape:current-layer="Layer_1"><inkscape:grid
     type="xygrid"
     id="grid2990" /></sodipodi:namedview>
<g
   id="g3">
	<path
   d="m 8.653,20.663 0,-8.837 c 0,-2.15 1.338,-3.535 3.01,-3.535 l 1.744,0 c 0.12,0.023 0.228,0.019 0.354,0.019 l 1.414,0 c 1.086,0 1.30558,-0.3370076 1.30558,-1.4670076 0,-1.13 -0.306007,-1.4700075 -1.392007,-1.4700075 l -0.647,0 0.006,0.011 -2.867,0 c -3.8690005,0 -6.0027332,1.8414426 -6.0027332,6.5714421 l 0,8.17 c 0,1.767 -0.812,3.199 -2.483,3.199 l 0,0.027 c -0.947,0.13 -1.686,0.847 -1.686,1.756 0,0.999 0.919,1.756 2.004,1.756 l 0.332,0.05 c 1.206,0.344 1.833,1.547 1.833,3.05 l 0,8.217 c 0,4.729 2.2161602,6.445016 6.0851602,6.445016 l 1.737,0 c 0.122,0.023 0.244,0.007 0.373,0.007 l 1.414,0 c 1.086,0 1.717718,-0.418435 1.717718,-1.548435 0,-1.129 -0.631718,-1.466008 -1.717718,-1.466008 l -0.647,0 -0.01,0.018 -2.867,0 c -1.672,0 -3.01,-1.435 -3.01,-3.581 l 0,-8.792 c 0,-2.008 -0.621,-3.63 -2.197,-4.299 1.576,-0.67 2.197,-2.294 2.197,-4.301 z"
   id="path5"
   inkscape:connector-curvature="0"
   style="fill:#231f20"
   sodipodi:nodetypes="ssscssssccsssccsccssscssssccssscs" />
	<path
   d="m 47.849313,24.942573 c 0,-0.739 -0.501,-1.479 -1.191,-1.76 l 0.018,-0.023 c -1.669,0 -2.484,-1.433 -2.484,-3.199 l 0,-8.17 c 0,-4.7290005 -1.521836,-6.5144523 -5.340313,-6.4065881 l -2.918,0 0.016,-0.012 -0.167,0 c -1.085,0 -1.979,0.4918625 -1.979,1.6218625 0,1.13 0.879,1.3021526 1.964,1.3021526 l 1.415,0 c 0.128,0 0.237,0.018 0.358,-0.006 l 1.312,0 c 1.621,0 2.34858,1.3025725 2.34858,3.452573 l 0,8.837 c 0,2.007 0.622,3.631 2.198,4.3 -1.576,0.669 -2.198,2.291 -2.198,4.299 l 0,8.792 c 0,2.146 -0.72758,3.663427 -2.34858,3.663427 l -2.918,0 0.06,-0.012 -0.167,0 c -1.085,0 -2.35271,0.398008 -2.35271,1.527008 0,1.13 1.26771,1.32258 2.35271,1.32258 l 1.415,0 c 0.13,0 0.181,0.011 0.303,-0.013 l 1.308,0 c 3.82,0 5.340313,-1.715015 5.340313,-6.445015 l 0,-8.217 c 0,-1.733 0.796,-3.133 2.406,-3.181 0.02,-0.007 0.042,-0.007 0.059,-0.013 0.011,0 0.013,-0.005 0.02,-0.005 l 0,-0.008 c 0.687,-0.276 1.17,-0.907 1.17,-1.647 z"
   id="path7"
   inkscape:connector-curvature="0"
   style="fill:#231f20"
   sodipodi:nodetypes="sccsssccsssscssscsssccsssscsssccccs" />
</g>
</svg>