<?xml version="1.0" encoding="UTF-8" standalone="no"?>
<!-- Generator: Adobe Illustrator 16.0.0, SVG Export Plug-In . SVG Version: 6.00 Build 0)  -->

<svg
   xmlns:dc="http://purl.org/dc/elements/1.1/"
   xmlns:cc="http://creativecommons.org/ns#"
   xmlns:rdf="http://www.w3.org/1999/02/22-rdf-syntax-ns#"
   xmlns:svg="http://www.w3.org/2000/svg"
   xmlns="http://www.w3.org/2000/svg"
   xmlns:sodipodi="http://sodipodi.sourceforge.net/DTD/sodipodi-0.dtd"
   xmlns:inkscape="http://www.inkscape.org/namespaces/inkscape"
   version="1.1"
   id="Layer_1"
   x="0px"
   y="0px"
   width="50px"
   height="50px"
   viewBox="0 0 50 50"
   enable-background="new 0 0 50 50"
   xml:space="preserve"
   inkscape:version="0.48.2 r9819"
   sodipodi:docname="comment.svg"><metadata
   id="metadata9"><rdf:RDF><cc:Work
       rdf:about=""><dc:format>image/svg+xml</dc:format><dc:type
         rdf:resource="http://purl.org/dc/dcmitype/StillImage" /></cc:Work></rdf:RDF></metadata><defs
   id="defs7" /><sodipodi:namedview
   pagecolor="#ffffff"
   bordercolor="#666666"
   borderopacity="1"
   objecttolerance="10"
   gridtolerance="10"
   guidetolerance="10"
   inkscape:pageopacity="0"
   inkscape:pageshadow="2"
   inkscape:window-width="1436"
   inkscape:window-height="856"
   id="namedview5"
   showgrid="true"
   inkscape:snap-global="false"
   inkscape:zoom="12.131875"
   inkscape:cx="11.935243"
   inkscape:cy="25"
   inkscape:window-x="4"
   inkscape:window-y="0"
   inkscape:window-maximized="1"
   inkscape:current-layer="Layer_1"><inkscape:grid
     type="xygrid"
     id="grid2986" /></sodipodi:namedview>
<path
   d="m 3.9107478,44.156481 c -0.255,0 -0.347145,-0.049 -0.592145,-0.149 -0.751,-0.307 -0.5863356,-0.131303 -0.5835801,-0.944298 L 2.8174502,18.74387 c 5.491e-4,-0.161999 0.02,-0.32 0.057,-0.473 l 0,-10.3329999 c 0,-2.993 2.343145,-5.0158626 5.426145,-5.0158626 l 30.5229998,0 c 3.083,0 5.26129,2.0228626 5.26129,5.0158626 l 0,20.5669999 c 0,2.993 -2.17829,3.944305 -5.26129,3.944305 l -20.367,0 -13.1188472,11.110306 c -0.383,0.389 -0.9,0.597 -1.427,0.597 z m 2.001,-24.882611 -0.082427,18.901313 10.3632747,-8.303733 c 0.376,-0.382 0.89,-0.598 1.426,-0.598 l 21.700565,0 c 0.877,0 1.591,-0.641 1.591,-1.428 l 0,-20.4845723 c 0,-0.787 -0.714,-1.428 -1.591,-1.428 l -31.7604122,0 c -0.877,0 -1.591,0.641 -1.591,1.428 l 0,11.4399923 c 0,0.161 -0.019,0.32 -0.056,0.473 z"
   id="path3"
   inkscape:connector-curvature="0"
   style="fill:#231f20"
   sodipodi:nodetypes="scsscssssssccscccssssssssc" />
</svg>