<?xml version="1.0" encoding="utf-8"?>
<!-- Generator: Adobe Illustrator 16.0.0, SVG Export Plug-In . SVG Version: 6.00 Build 0)  -->
<!DOCTYPE svg PUBLIC "-//W3C//DTD SVG 1.1//EN" "http://www.w3.org/Graphics/SVG/1.1/DTD/svg11.dtd">
<svg version="1.1" id="Layer_1" xmlns="http://www.w3.org/2000/svg" xmlns:xlink="http://www.w3.org/1999/xlink" x="0px" y="0px"
	 width="15.442px" height="15.441px" viewBox="0 0 15.442 15.441" enable-background="new 0 0 15.442 15.441" xml:space="preserve">
<path d="M9.271,7.789l3.441-3.441c0.391-0.391,0.391-1.023,0-1.414c-0.39-0.391-1.023-0.391-1.414,0L7.857,6.375L4.414,2.932
	C4.023,2.541,3.39,2.541,3,2.932S2.609,3.955,3,4.346l3.442,3.443l-3.444,3.443c-0.391,0.391-0.391,1.023,0,1.414
	c0.195,0.195,0.451,0.293,0.707,0.293s0.512-0.098,0.707-0.293l3.444-3.443l3.442,3.443c0.195,0.195,0.451,0.293,0.707,0.293
	s0.512-0.098,0.707-0.293c0.391-0.391,0.391-1.023,0-1.414L9.271,7.789z"/>
</svg>
