<?xml version="1.0" encoding="utf-8"?>
<!-- Generator: Adobe Illustrator 16.0.0, SVG Export Plug-In . SVG Version: 6.00 Build 0)  -->
<!DOCTYPE svg PUBLIC "-//W3C//DTD SVG 1.1//EN" "http://www.w3.org/Graphics/SVG/1.1/DTD/svg11.dtd">
<svg version="1.1" id="Layer_1" xmlns="http://www.w3.org/2000/svg" xmlns:xlink="http://www.w3.org/1999/xlink" x="0px" y="0px"
	 width="50px" height="50px" viewBox="0 0 50 50" enable-background="new 0 0 50 50" xml:space="preserve">
<path fill="#231F20" d="M9.801,42.354L9.801,42.354c-0.709,0-1.32-0.285-1.719-0.805c-0.428-0.559-0.547-1.311-0.331-2.115
	l2.363-8.83c0.369-1.375,0.592-2.209,1.188-2.499c0.039-0.046,0.077-0.093,0.104-0.126c0.145-0.176,0.875-0.937,1.642-1.704
	l16.154-16.15c0.72-0.719,3.369-2.479,5.016-2.479c0.261,0,0.503,0.041,0.72,0.12c1.129,0.407,2.679,1.391,3.529,2.24l1.532,1.532
	c0.848,0.85,1.833,2.398,2.241,3.526c0.658,1.839-1.785,5.164-2.359,5.738L23.73,36.957c-0.058,0.058-1.249,1.245-1.849,1.747
	c-0.276,0.561-0.94,0.766-2.481,1.181l-8.834,2.366C10.306,42.32,10.048,42.354,9.801,42.354z M9.794,39.921l0.007,1.218v-1.215
	C9.799,39.921,9.797,39.921,9.794,39.921z M12.823,30.033c-0.079,0.232-0.205,0.633-0.356,1.202l-2.304,8.604l8.606-2.306
	c0.518-0.139,0.896-0.254,1.136-0.334c0.122-0.146,0.275-0.274,0.459-0.385c0.084-0.072,0.891-0.825,1.645-1.58L38.161,19.08
	c0.627-0.625,1.788-2.703,1.767-3.3c-0.264-0.688-1.046-1.919-1.649-2.521l-1.531-1.531c-0.602-0.604-1.834-1.387-2.634-1.675
	c-0.522,0.025-2.564,1.168-3.188,1.793L14.771,27.998c-0.678,0.676-1.329,1.346-1.472,1.512
	C13.146,29.695,12.993,29.88,12.823,30.033z"/>
</svg>
