<?xml version="1.0" encoding="utf-8"?>
<!-- Generator: Adobe Illustrator 16.0.0, SVG Export Plug-In . SVG Version: 6.00 Build 0)  -->
<!DOCTYPE svg PUBLIC "-//W3C//DTD SVG 1.1//EN" "http://www.w3.org/Graphics/SVG/1.1/DTD/svg11.dtd">
<svg version="1.1" id="Layer_1" xmlns="http://www.w3.org/2000/svg" xmlns:xlink="http://www.w3.org/1999/xlink" x="0px" y="0px"
	 width="50px" height="50px" viewBox="0 0 50 50" enable-background="new 0 0 50 50" xml:space="preserve">
<path fill="#231F20" d="M41.977,15.16c-0.395-1.094-1.349-2.597-2.175-3.423l-1.532-1.532c-0.825-0.824-2.327-1.779-3.422-2.177
	c-0.188-0.067-0.398-0.103-0.626-0.103c-1.507,0-4.085,1.666-4.818,2.398L13.25,26.475c-0.759,0.758-1.481,1.508-1.626,1.68
	c-0.039,0.053-0.099,0.127-0.159,0.193c-0.515,0.23-0.717,0.98-1.077,2.328l-2.364,8.832c-0.191,0.719-0.092,1.383,0.283,1.871
	c0.041,0.053,0.107,0.074,0.152,0.123l-0.016,0.057l0.066-0.018c0.338,0.326,0.771,0.533,1.292,0.533
	c0.223,0,0.456-0.033,0.691-0.096l8.834-2.365c1.721-0.461,2.149-0.646,2.327-1.088c0.559-0.453,1.863-1.754,1.878-1.77
	l16.151-16.153C40.326,19.961,42.553,16.757,41.977,15.16z"/>
</svg>
