<?xml version="1.0" encoding="utf-8"?>
<!-- Generator: Adobe Illustrator 16.0.0, SVG Export Plug-In . SVG Version: 6.00 Build 0)  -->
<!DOCTYPE svg PUBLIC "-//W3C//DTD SVG 1.1//EN" "http://www.w3.org/Graphics/SVG/1.1/DTD/svg11.dtd">
<svg version="1.1" id="Layer_1" xmlns="http://www.w3.org/2000/svg" xmlns:xlink="http://www.w3.org/1999/xlink" x="0px" y="0px"
	 width="50px" height="50px" viewBox="0 0 50 50" enable-background="new 0 0 50 50" xml:space="preserve">
<path fill="#231F20" d="M7.536,36.284c-0.908,0.895-1.429,2.146-1.429,3.435c0,1.28,0.518,2.532,1.426,3.438
	c0.9,0.9,2.151,1.419,3.431,1.419c1.273,0,2.521-0.519,3.426-1.419c0.903-0.906,1.421-2.158,1.421-3.438
	c0-1.286-0.521-2.537-1.421-3.432C12.575,34.479,9.327,34.491,7.536,36.284z"/>
<path fill="#231F20" d="M11.263,19.988c-0.749-0.042-1.502-0.048-2.354-0.073c-1.907,0.049-3.461,1.642-3.461,3.553
	c0,1.965,1.602,3.563,3.715,3.568c0.601,0.005,1.199,0.024,1.794,0.066l0.139,0.02c6.381,0.873,11.48,5.875,12.499,12.21
	l0.064,1.419h0.051c0.013,0.296,0.02,0.607,0.02,0.946c0,1.807,1.361,3.322,3.313,3.535h0.585l0.077-0.008
	c1.743-0.202,3.095-1.675,3.146-3.511c0-0.796-0.033-1.581-0.088-2.424C29.662,29.183,21.488,21.066,11.263,19.988z"/>
<path fill="#231F20" d="M34.814,15.85C28.121,9.141,18.898,4.991,8.713,4.991C6.712,5.048,5.217,6.585,5.217,8.497
	c0,1.937,1.574,3.513,3.51,3.513c0.648,0.01,1.191,0.026,1.73,0.064l1.356,0.103c5.516,0.569,10.589,2.657,14.811,5.825v0.011
	c0.768,0.57,1.504,1.179,2.213,1.818c0.164,0.149,0.325,0.3,0.485,0.452c0.171,0.161,0.341,0.323,0.509,0.488
	c1.514,1.51,2.871,3.177,4.038,4.98h0.041c2.534,3.882,4.194,8.382,4.693,13.217l0.103,1.356c0.038,0.539,0.055,1.082,0.064,1.73
	c0,1.936,1.576,3.51,3.513,3.51c1.911,0,3.448-1.495,3.506-3.496C45.79,31.823,41.592,22.552,34.814,15.85z"/>
</svg>
