<?xml version="1.0" encoding="utf-8"?>
<!-- Generator: Adobe Illustrator 16.0.0, SVG Export Plug-In . SVG Version: 6.00 Build 0)  -->
<!DOCTYPE svg PUBLIC "-//W3C//DTD SVG 1.1//EN" "http://www.w3.org/Graphics/SVG/1.1/DTD/svg11.dtd">
<svg version="1.1" id="Layer_1" xmlns="http://www.w3.org/2000/svg" xmlns:xlink="http://www.w3.org/1999/xlink" x="0px" y="0px"
	 width="50px" height="50px" viewBox="0 0 50 50" enable-background="new 0 0 50 50" xml:space="preserve">
<g>
	<path fill="#231F20" d="M41.018,12.449c0.317-0.449,0.286-1.16-0.069-1.58l-2.08-2.177c-0.403-0.374-1.111-0.435-1.573-0.136
		c0,0-3.539,2.29-6.003,1.206s-3.169-5.241-3.169-5.241c-0.092-0.542-0.615-1.023-1.164-1.068L23.951,3.39
		c-0.549,0.022-1.095,0.479-1.212,1.017c0,0-0.896,4.119-3.403,5.093c-2.508,0.976-5.951-1.455-5.951-1.455
		c-0.449-0.317-1.161-0.286-1.58,0.069L9.63,10.193c-0.374,0.404-0.435,1.112-0.136,1.574c0,0,2.289,3.54,1.205,6.003
		c-1.084,2.465-5.241,3.169-5.241,3.169c-0.542,0.092-1.023,0.615-1.068,1.164l-0.063,3.01c0.022,0.55,0.479,1.095,1.017,1.212
		c0,0,4.119,0.896,5.093,3.402c0.976,2.508-1.455,5.949-1.455,5.949c-0.317,0.45-0.286,1.161,0.069,1.581l2.079,2.176
		c0.404,0.373,1.112,0.435,1.574,0.136c0,0,3.539-2.286,6.002-1.203c2.464,1.084,3.168,5.238,3.168,5.238
		c0.092,0.543,0.616,1.023,1.164,1.068l3.01,0.062c0.55-0.021,1.095-0.479,1.212-1.017c0,0,0.895-4.117,3.402-5.093
		c2.507-0.976,5.949,1.455,5.949,1.455c0.45,0.317,1.161,0.286,1.581-0.069l2.176-2.08c0.374-0.403,0.436-1.111,0.137-1.573
		c0,0-2.288-3.539-1.205-6.003c1.085-2.465,5.239-3.168,5.239-3.168c0.543-0.092,1.023-0.615,1.068-1.164l0.062-3.009
		c-0.022-0.549-0.479-1.095-1.018-1.211c0,0-4.116-0.896-5.092-3.404C38.588,15.892,41.018,12.449,41.018,12.449z M28.354,32.684
		c-4.762,1.853-10.123-0.507-11.975-5.268c-1.852-4.762,0.508-10.123,5.269-11.975s10.122,0.508,11.974,5.269
		C35.474,25.471,33.114,30.832,28.354,32.684z"/>
</g>
</svg>
