<?xml version="1.0" encoding="utf-8"?>
<!-- Generator: Adobe Illustrator 16.0.0, SVG Export Plug-In . SVG Version: 6.00 Build 0)  -->
<!DOCTYPE svg PUBLIC "-//W3C//DTD SVG 1.1//EN" "http://www.w3.org/Graphics/SVG/1.1/DTD/svg11.dtd">
<svg version="1.1" id="Layer_1" xmlns="http://www.w3.org/2000/svg" xmlns:xlink="http://www.w3.org/1999/xlink" x="0px" y="0px"
	 width="50px" height="50px" viewBox="0 0 50 50" enable-background="new 0 0 50 50" xml:space="preserve">
<g>
	<path fill="#231F20" d="M24.227,9.715l2.225,0.045c0.405,0.035,0.794,0.389,0.86,0.79c0,0,0.521,3.074,2.343,3.876
		c0.349,0.153,0.726,0.216,1.109,0.216c1.616,0,3.329-1.11,3.329-1.11c0.146-0.092,0.325-0.138,0.504-0.138
		c0.241,0,0.487,0.083,0.658,0.242l1.537,1.611c0.268,0.306,0.289,0.835,0.052,1.167c0,0-1.795,2.542-1.076,4.395
		c0.721,1.859,3.766,2.52,3.766,2.52c0.396,0.085,0.735,0.486,0.751,0.898l-0.044,2.224c-0.033,0.404-0.391,0.789-0.79,0.855
		c0,0-3.074,0.521-3.873,2.346c-0.805,1.818,0.89,4.439,0.89,4.439c0.22,0.336,0.174,0.867-0.103,1.162l-1.611,1.537
		c-0.165,0.141-0.396,0.211-0.625,0.211c-0.193,0-0.388-0.051-0.54-0.16c0,0-1.766-1.248-3.428-1.248
		c-0.335,0-0.663,0.051-0.973,0.172c-1.854,0.721-2.515,3.766-2.515,3.766c-0.088,0.398-0.489,0.736-0.897,0.754L23.55,40.24
		c-0.402-0.037-0.789-0.391-0.857-0.791c0,0-0.523-3.072-2.345-3.873c-0.349-0.152-0.726-0.217-1.111-0.217
		c-1.619,0-3.328,1.105-3.328,1.105c-0.146,0.096-0.324,0.139-0.506,0.139c-0.241,0-0.484-0.084-0.655-0.242l-1.54-1.605
		c-0.265-0.309-0.287-0.838-0.051-1.166c0,0,1.799-2.551,1.077-4.4c-0.719-1.852-3.765-2.52-3.765-2.52
		c-0.399-0.082-0.736-0.484-0.752-0.895l0.047-2.223c0.033-0.409,0.387-0.796,0.788-0.86c0,0,3.074-0.522,3.877-2.346
		c0.8-1.821-0.891-4.438-0.891-4.438c-0.223-0.342-0.179-0.865,0.101-1.163l1.606-1.541c0.165-0.14,0.393-0.21,0.621-0.21
		c0.196,0,0.393,0.055,0.548,0.165c0,0,1.763,1.244,3.421,1.244c0.336,0,0.668-0.051,0.979-0.173
		c1.852-0.72,2.513-3.761,2.513-3.761C23.416,10.071,23.819,9.733,24.227,9.715 M25.003,31.838c0.825,0,1.664-0.148,2.479-0.469
		c3.52-1.363,5.263-5.33,3.894-8.848c-1.054-2.704-3.638-4.363-6.376-4.363c-0.824,0-1.662,0.149-2.478,0.468
		c-3.519,1.371-5.265,5.332-3.896,8.854C19.68,30.182,22.262,31.838,25.003,31.838 M24.203,7.703L24.14,7.705
		c-1.329,0.057-2.495,1.04-2.779,2.334c-0.206,0.918-0.81,2.135-1.272,2.313c-0.064,0.025-0.15,0.038-0.252,0.038
		c-0.755,0-1.854-0.593-2.269-0.88c-0.469-0.336-1.081-0.529-1.701-0.529c-0.711,0-1.388,0.241-1.912,0.678l-0.052,0.046
		l-0.051,0.047l-1.607,1.54l-0.04,0.038l-0.037,0.041c-0.916,0.978-1.05,2.508-0.318,3.634c0.502,0.79,0.937,2.076,0.738,2.532
		c-0.219,0.499-1.574,1.036-2.373,1.17c-1.307,0.213-2.346,1.341-2.455,2.683l-0.006,0.058l-0.001,0.061l-0.048,2.223l-0.001,0.066
		l0.004,0.065c0.057,1.338,1.048,2.508,2.355,2.777c0.896,0.205,2.118,0.812,2.299,1.277c0.18,0.467-0.309,1.736-0.851,2.518
		c-0.76,1.061-0.692,2.631,0.179,3.637l0.032,0.039l0.035,0.035l1.54,1.609l0.039,0.039l0.041,0.039
		c0.541,0.506,1.262,0.783,2.03,0.783c0.579,0,1.131-0.16,1.598-0.461c0.473-0.299,1.506-0.783,2.235-0.783
		c0.172,0,0.263,0.029,0.3,0.045c0.455,0.201,1.003,1.441,1.172,2.375c0.222,1.295,1.34,2.33,2.657,2.451l0.07,0.006l0.073,0.002
		l2.225,0.045H25.8l0.062-0.002c1.32-0.057,2.489-1.035,2.775-2.326c0.21-0.932,0.815-2.148,1.279-2.33
		c0.057-0.02,0.144-0.031,0.244-0.031c0.765,0,1.876,0.602,2.265,0.877c0.487,0.35,1.081,0.531,1.703,0.531
		c0.713,0,1.396-0.244,1.923-0.686l0.047-0.039l0.047-0.043l1.612-1.537l0.041-0.041l0.041-0.041
		c0.903-0.971,1.034-2.535,0.311-3.643c-0.496-0.781-0.933-2.068-0.733-2.523c0.205-0.459,1.444-1.008,2.379-1.172
		c1.305-0.219,2.341-1.346,2.451-2.676l0.004-0.061v-0.062l0.048-2.223v-0.066l-0.003-0.063c-0.058-1.325-1.038-2.496-2.335-2.778
		c-0.921-0.207-2.136-0.812-2.317-1.279c-0.194-0.51,0.378-1.846,0.846-2.509c0.769-1.072,0.697-2.646-0.179-3.648l-1.598-1.679
		l-0.038-0.04l-0.038-0.037c-0.535-0.501-1.279-0.788-2.039-0.788c-0.57,0-1.122,0.154-1.587,0.454
		c-0.486,0.308-1.517,0.793-2.246,0.793c-0.172,0-0.26-0.029-0.3-0.045c-0.456-0.201-1.003-1.444-1.17-2.377
		c-0.215-1.3-1.339-2.335-2.669-2.451L26.559,7.75l-0.066-0.001l-2.224-0.045H24.203L24.203,7.703z M25.003,29.826
		c-2.006,0-3.772-1.209-4.5-3.078c-0.963-2.478,0.269-5.28,2.752-6.247c0.562-0.218,1.148-0.331,1.746-0.331
		c2.006,0,3.773,1.209,4.501,3.083c0.47,1.2,0.438,2.512-0.082,3.69c-0.52,1.182-1.464,2.086-2.664,2.551
		C26.188,29.717,25.6,29.826,25.003,29.826L25.003,29.826z"/>
</g>
</svg>
