<?xml version="1.0" encoding="utf-8"?>
<!-- Generator: Adobe Illustrator 16.0.0, SVG Export Plug-In . SVG Version: 6.00 Build 0)  -->
<!DOCTYPE svg PUBLIC "-//W3C//DTD SVG 1.1//EN" "http://www.w3.org/Graphics/SVG/1.1/DTD/svg11.dtd">
<svg version="1.1" id="Layer_1" xmlns="http://www.w3.org/2000/svg" xmlns:xlink="http://www.w3.org/1999/xlink" x="0px" y="0px"
	 width="50px" height="50px" viewBox="0 0 50 50" enable-background="new 0 0 50 50" xml:space="preserve">
<g>
	<path d="M29.333,16.046c-0.524,0.543-0.8,1.232-0.8,1.993v9.641h-13.16v-9.641c0-0.768-0.289-1.461-0.833-2.007
		c-1.094-1.095-2.949-1.088-4.008,0.014c-0.523,0.544-0.799,1.232-0.799,1.993v24.682c0,0.77,0.281,1.456,0.812,1.986
		c1.057,1.059,2.889,1.066,3.98,0.014c0.554-0.531,0.847-1.224,0.847-2V33.08h13.16v9.643c0,0.769,0.28,1.457,0.812,1.985
		c0.531,0.532,1.219,0.812,1.987,0.812c0.76,0,1.45-0.276,1.994-0.799c0.555-0.531,0.848-1.224,0.848-2V18.039
		c0-0.768-0.289-1.462-0.833-2.007C32.246,14.938,30.391,14.943,29.333,16.046z"/>
	<path d="M44.768,21.054c-0.252-0.538-0.632-0.959-1.135-1.261c0.685-0.543,1.041-1.312,1.041-2.265
		c0-0.963-0.361-1.724-1.074-2.263c-0.67-0.503-1.584-0.758-2.716-0.758c-1.106,0-2.147,0.261-3.1,0.777
		c-0.345,0.192-0.535,0.501-0.535,0.871c0,0.417,0.173,0.661,0.314,0.788c0.35,0.323,0.88,0.317,1.16,0.172
		c0.614-0.277,1.275-0.418,1.964-0.418c0.802,0,1.19,0.164,1.377,0.301c0.232,0.172,0.336,0.374,0.336,0.655
		c0,0.295,0,1.194-2.469,1.194c-0.29,0-0.555,0.111-0.766,0.321c-0.211,0.211-0.322,0.476-0.322,0.767
		c0,0.292,0.112,0.558,0.321,0.766c0.21,0.21,0.475,0.322,0.767,0.322h0.226c2.594,0,2.594,0.952,2.594,1.265
		c0,0.196-0.04,0.344-0.122,0.451c-0.308,0.4-0.97,0.603-1.968,0.603c-0.745,0-1.384-0.105-1.902-0.316
		c-0.25-0.098-0.464-0.146-0.653-0.146s-0.469,0.062-0.727,0.361c-0.178,0.211-0.271,0.463-0.271,0.727
		c0,0.442,0.233,0.793,0.678,0.996c0.98,0.396,2.027,0.597,3.113,0.597c1.151,0,2.113-0.261,2.859-0.774
		c0.388-0.267,0.698-0.605,0.926-1.012c0.226-0.412,0.34-0.883,0.34-1.402C45.023,21.852,44.939,21.42,44.768,21.054z"/>
</g>
</svg>
