<?xml version="1.0" encoding="utf-8"?>
<!-- Generator: Adobe Illustrator 16.0.0, SVG Export Plug-In . SVG Version: 6.00 Build 0)  -->
<!DOCTYPE svg PUBLIC "-//W3C//DTD SVG 1.1//EN" "http://www.w3.org/Graphics/SVG/1.1/DTD/svg11.dtd">
<svg version="1.1" id="Layer_1" xmlns="http://www.w3.org/2000/svg" xmlns:xlink="http://www.w3.org/1999/xlink" x="0px" y="0px"
	 width="50px" height="50px" viewBox="0 0 50 50" enable-background="new 0 0 50 50" xml:space="preserve">
<g>
	<path d="M28.904,10.644C28.312,11.258,28,12.038,28,12.898v11.769H11.808V12.898c0-0.869-0.325-1.653-0.94-2.267
		C10.252,10.015,9.468,9.69,8.6,9.69c-0.876,0-1.656,0.33-2.256,0.954c-0.592,0.614-0.904,1.394-0.904,2.254v29.618
		c0,0.867,0.316,1.643,0.917,2.242c1.195,1.195,3.259,1.202,4.496,0.014c0.625-0.602,0.955-1.381,0.955-2.256V30.747H28v11.769
		c0,0.867,0.316,1.643,0.917,2.242s1.376,0.917,2.243,0.917c0.859,0,1.638-0.313,2.252-0.903c0.625-0.603,0.955-1.383,0.955-2.258
		V12.898c0-0.869-0.325-1.653-0.94-2.267C32.191,9.393,30.098,9.402,28.904,10.644z"/>
	<path d="M46.567,20.277h-3.783c0.119-0.083,0.24-0.166,0.363-0.249l1.65-1.108c0.614-0.415,1.182-0.856,1.693-1.319
		c1.301-1.201,1.96-2.508,1.96-3.885c0-1.382-0.524-2.529-1.554-3.404c-0.963-0.83-2.169-1.25-3.585-1.25
		c-1.592,0-3.087,0.344-4.478,1.041c-0.582,0.318-0.916,0.854-0.916,1.471c0,0.644,0.254,1.045,0.467,1.268
		c0.316,0.332,0.713,0.507,1.146,0.507c0.314,0,0.605-0.066,0.816-0.174c0.851-0.375,1.751-0.564,2.676-0.564
		c0.726,0,1.26,0.135,1.551,0.397c0.095,0.083,0.159,0.177,0.205,0.299c0.04,0.105,0.088,0.306,0.088,0.661
		c0,0.198-0.155,0.418-0.286,0.569c-0.3,0.345-0.69,0.692-1.159,1.031c-0.515,0.369-1.08,0.743-1.678,1.112
		c-0.652,0.4-1.272,0.837-1.843,1.299c-0.607,0.49-1.12,1.031-1.521,1.605c-0.475,0.674-0.716,1.443-0.716,2.287
		c0,0.55,0.199,1.033,0.575,1.394c0.366,0.354,0.844,0.542,1.38,0.542h6.947c0.474,0,0.902-0.17,1.242-0.495
		c0.349-0.334,0.532-0.77,0.532-1.26c0-0.479-0.178-0.912-0.52-1.259C47.483,20.458,47.052,20.279,46.567,20.277z"/>
</g>
</svg>
