<?xml version="1.0" encoding="utf-8"?>
<!-- Generator: Adobe Illustrator 16.0.0, SVG Export Plug-In . SVG Version: 6.00 Build 0)  -->
<!DOCTYPE svg PUBLIC "-//W3C//DTD SVG 1.1//EN" "http://www.w3.org/Graphics/SVG/1.1/DTD/svg11.dtd">
<svg version="1.1" id="Layer_1" xmlns="http://www.w3.org/2000/svg" xmlns:xlink="http://www.w3.org/1999/xlink" x="0px" y="0px"
	 width="50px" height="50px" viewBox="0 0 50 50" enable-background="new 0 0 50 50" xml:space="preserve">
<path d="M32.359,3.7c-0.987,0-1.868,0.372-2.545,1.075c-0.679,0.703-1.021,1.561-1.021,2.547v14.162H9.19V7.322
	c0-0.995-0.357-1.856-1.062-2.56C7.423,4.057,6.562,3.7,5.569,3.7c-0.987,0-1.867,0.372-2.544,1.075
	C2.348,5.478,2.004,6.336,2.004,7.322v35.171c0,0.991,0.348,1.843,1.034,2.53c0.685,0.685,1.537,1.033,2.531,1.033
	c0.986,0,1.842-0.345,2.546-1.021c0.714-0.688,1.076-1.544,1.076-2.545V28.329h19.603v14.164c0,0.991,0.349,1.843,1.034,2.53
	c0.686,0.685,1.537,1.033,2.531,1.033c0.986,0,1.842-0.345,2.545-1.021c0.716-0.688,1.076-1.544,1.076-2.545V7.322
	c0-0.995-0.356-1.856-1.062-2.56C34.213,4.057,33.354,3.7,32.359,3.7z"/>
<path d="M49.433,16.71c-0.37-0.372-0.846-0.568-1.378-0.568h-1.18V4.712c0-0.559-0.208-1.062-0.604-1.458
	c-0.396-0.392-0.897-0.599-1.452-0.599h-0.463c-0.359,0-0.717,0.087-1.077,0.268l-2.977,1.554c-0.979,0.49-1.125,1.273-1.125,1.697
	c0,0.768,0.303,1.233,0.562,1.492c0.462,0.457,0.943,0.553,1.266,0.553c0.344,0,0.576-0.035,0.782-0.117l1.089-0.512v8.551h-1.618
	c-0.539,0-1.018,0.202-1.381,0.583c-0.355,0.37-0.543,0.841-0.543,1.363c0,0.529,0.192,1.001,0.558,1.367
	c0.364,0.364,0.837,0.557,1.366,0.557h6.8c0.519,0,0.989-0.187,1.368-0.548C49.801,19.096,50,18.62,50,18.087
	C50,17.558,49.804,17.082,49.433,16.71z"/>
</svg>
