<?xml version="1.0" encoding="utf-8"?>
<!-- Generator: Adobe Illustrator 16.0.0, SVG Export Plug-In . SVG Version: 6.00 Build 0)  -->
<!DOCTYPE svg PUBLIC "-//W3C//DTD SVG 1.1//EN" "http://www.w3.org/Graphics/SVG/1.1/DTD/svg11.dtd">
<svg version="1.1" id="Layer_1" xmlns="http://www.w3.org/2000/svg" xmlns:xlink="http://www.w3.org/1999/xlink" x="0px" y="0px"
	 width="50px" height="50px" viewBox="0 0 50 50" enable-background="new 0 0 50 50" xml:space="preserve">
<path fill="#231F20" d="M40.791,26.598c0.813,0,1.545-0.492,1.853-1.245c0.307-0.753,0.127-1.617-0.455-2.185L26.397,9.735
	c-0.775-0.76-2.018-0.76-2.795,0L7.812,23.167C7.23,23.736,7.051,24.6,7.358,25.353c0.307,0.753,1.039,1.245,1.852,1.245h3.378
	v12.236c0,1.104,0.896,2,2,2h3.953c1.082,0,1.959-0.877,1.959-1.959v-9.043c0-1.104,0.896-2,2-2h5c1.104,0,2,0.896,2,2v8.543
	c0,1.358,1.101,2.459,2.459,2.459h3.452c1.104,0,2-0.896,2-2V26.598H40.791z"/>
</svg>
