<?xml version="1.0" encoding="UTF-8" standalone="no"?>
<!-- Generator: Adobe Illustrator 16.0.0, SVG Export Plug-In . SVG Version: 6.00 Build 0)  -->

<svg
   xmlns:dc="http://purl.org/dc/elements/1.1/"
   xmlns:cc="http://creativecommons.org/ns#"
   xmlns:rdf="http://www.w3.org/1999/02/22-rdf-syntax-ns#"
   xmlns:svg="http://www.w3.org/2000/svg"
   xmlns="http://www.w3.org/2000/svg"
   xmlns:sodipodi="http://sodipodi.sourceforge.net/DTD/sodipodi-0.dtd"
   xmlns:inkscape="http://www.inkscape.org/namespaces/inkscape"
   version="1.1"
   id="Layer_1"
   x="0px"
   y="0px"
   width="50px"
   height="50px"
   viewBox="0 0 50 50"
   enable-background="new 0 0 50 50"
   xml:space="preserve"
   inkscape:version="0.48.2 r9819"
   sodipodi:docname="indent.svg"><metadata
   id="metadata3437"><rdf:RDF><cc:Work
       rdf:about=""><dc:format>image/svg+xml</dc:format><dc:type
         rdf:resource="http://purl.org/dc/dcmitype/StillImage" /></cc:Work></rdf:RDF></metadata><defs
   id="defs3435" /><sodipodi:namedview
   pagecolor="#ffffff"
   bordercolor="#666666"
   borderopacity="1"
   objecttolerance="10"
   gridtolerance="10"
   guidetolerance="10"
   inkscape:pageopacity="0"
   inkscape:pageshadow="2"
   inkscape:window-width="1436"
   inkscape:window-height="856"
   id="namedview3433"
   showgrid="true"
   inkscape:zoom="15"
   inkscape:cx="22.811325"
   inkscape:cy="34.066073"
   inkscape:window-x="4"
   inkscape:window-y="0"
   inkscape:window-maximized="1"
   inkscape:current-layer="g3421"
   inkscape:snap-grids="false"
   inkscape:snap-global="false"><inkscape:grid
     type="xygrid"
     id="grid3439" /></sodipodi:namedview>
<g
   id="g3421"
   transform="translate(-0.1874625,0.232)">
	<path
   d="M 16.298391,20.025275 7.4334686,10.510838 c -1.0096135,-1.0841169 -2.646773,-1.0841169 -3.6563865,0 -1.0105687,1.079341 -1.0105687,2.836851 0,3.924789 l 7.0367299,7.555386 -7.0367299,7.558251 c -1.0105687,1.086028 -1.0105687,2.843538 0,3.92861 0.5052844,0.541581 1.1662612,0.815714 1.8281933,0.815714 0.6600217,0 1.3219538,-0.274133 1.8281932,-0.812848 l 8.8649224,-9.526855 c 0.506239,-0.540626 0.758404,-1.251271 0.758404,-1.961916 0,-0.707781 -0.252165,-1.420337 -0.758404,-1.966694 z"
   id="path3423"
   inkscape:connector-curvature="0" />
	<path
   d="M 46.036073,38.073068 H 18.670249 c -1.297517,0 -2.349454,0.671403 -2.349454,1.500699 0,0.8272 1.052904,1.499301 2.349454,1.499301 h 27.365824 c 1.29752,0 2.349456,-0.672799 2.35139,-1.499301 -9.67e-4,-0.828598 -1.054838,-1.500699 -2.35139,-1.500699 z"
   id="path3425"
   inkscape:connector-curvature="0" />
	<path
   d="M 46.110138,20.480591 H 30.664787 c -1.109499,0 -2.010657,0.668919 -2.010657,1.498602 0,0.832479 0.901158,1.501398 2.010657,1.501398 h 15.445352 c 1.1095,0 2.009005,-0.668919 2.010657,-1.501398 -8.28e-4,-0.829683 -0.901986,-1.498602 -2.010657,-1.498602 z"
   id="path3427"
   inkscape:connector-curvature="0" />
	<path
   d="M 46.036586,11.405485 H 30.538338 c -1.1133,0 -2.017543,0.669616 -2.017543,1.495848 0,0.826232 0.904245,1.495152 2.017543,1.495152 h 15.498248 c 1.113299,0 2.017544,-0.66892 2.017544,-1.495152 0,-0.826232 -0.905075,-1.495848 -2.017544,-1.495848 z"
   id="path3429"
   inkscape:connector-curvature="0" />
	<path
   d="M 18.912493,5.7296194 H 45.99385 c 1.28403,0 2.325031,-0.670391 2.326946,-1.5006982 0,-0.8289105 -1.042915,-1.4993016 -2.326946,-1.4993016 H 18.912495 c -1.284033,0 -2.325033,0.6696928 -2.325033,1.4993016 0,0.8303072 1.041958,1.5006982 2.325033,1.5006982 z"
   id="path3431"
   inkscape:connector-curvature="0" />
<path
   inkscape:connector-curvature="0"
   id="path3091"
   d="M 46.189537,29.167779 H 30.585501 c -1.120898,0 -2.031316,0.668919 -2.031316,1.498602 0,0.832479 0.910418,1.501398 2.031316,1.501398 h 15.604037 c 1.120898,0 2.029644,-0.668919 2.031314,-1.501398 -8.36e-4,-0.829683 -0.911253,-1.498602 -2.031314,-1.498602 z" /></g>
</svg>