<?xml version="1.0" encoding="utf-8"?>
<!-- Generator: Adobe Illustrator 16.0.0, SVG Export Plug-In . SVG Version: 6.00 Build 0)  -->
<!DOCTYPE svg PUBLIC "-//W3C//DTD SVG 1.1//EN" "http://www.w3.org/Graphics/SVG/1.1/DTD/svg11.dtd">
<svg version="1.1" id="Layer_1" xmlns="http://www.w3.org/2000/svg" xmlns:xlink="http://www.w3.org/1999/xlink" x="0px" y="0px"
	 width="50px" height="50px" viewBox="0 0 50 50" enable-background="new 0 0 50 50" xml:space="preserve">
<g>
	<path d="M32.938,31.902c-1.812-0.817-4.443-2.879-8.39-3.555c0.996-1.103,1.777-2.773,2.56-4.765
		c0.426-1.173,0.355-2.168,0.355-3.555c0-1.066,0.213-2.702-0.071-3.627c-0.854-3.093-3.058-3.946-5.618-3.946
		c-2.595,0-4.799,0.854-5.653,3.946c-0.249,0.925-0.071,2.596-0.071,3.627c0,1.387-0.071,2.382,0.391,3.555
		c0.782,1.991,1.529,3.698,2.56,4.765c-3.911,0.711-6.577,2.772-8.355,3.555c-3.697,1.636-3.697,3.449-3.697,3.449v3.058h29.722
		v-3.058C36.671,35.352,36.635,33.538,32.938,31.902z"/>
	<polygon points="44.75,19.25 39,19.25 39,13.5 36.25,13.5 36.25,19.25 30.5,19.25 30.5,22 36.25,22 36.25,27.75 39,27.75 39,22 
		44.75,22 	"/>
</g>
</svg>
