<?xml version="1.0" encoding="UTF-8" standalone="no"?>
<!-- Generator: Adobe Illustrator 16.0.0, SVG Export Plug-In . SVG Version: 6.00 Build 0)  -->

<svg
   xmlns:dc="http://purl.org/dc/elements/1.1/"
   xmlns:cc="http://creativecommons.org/ns#"
   xmlns:rdf="http://www.w3.org/1999/02/22-rdf-syntax-ns#"
   xmlns:svg="http://www.w3.org/2000/svg"
   xmlns="http://www.w3.org/2000/svg"
   xmlns:sodipodi="http://sodipodi.sourceforge.net/DTD/sodipodi-0.dtd"
   xmlns:inkscape="http://www.inkscape.org/namespaces/inkscape"
   version="1.1"
   id="Layer_1"
   x="0px"
   y="0px"
   width="50px"
   height="50px"
   viewBox="0 0 50 50"
   enable-background="new 0 0 50 50"
   xml:space="preserve"
   inkscape:version="0.48.2 r9819"
   sodipodi:docname="italic.svg"><metadata
   id="metadata9"><rdf:RDF><cc:Work
       rdf:about=""><dc:format>image/svg+xml</dc:format><dc:type
         rdf:resource="http://purl.org/dc/dcmitype/StillImage" /></cc:Work></rdf:RDF></metadata><defs
   id="defs7" /><sodipodi:namedview
   pagecolor="#ffffff"
   bordercolor="#666666"
   borderopacity="1"
   objecttolerance="10"
   gridtolerance="10"
   guidetolerance="10"
   inkscape:pageopacity="0"
   inkscape:pageshadow="2"
   inkscape:window-width="1436"
   inkscape:window-height="856"
   id="namedview5"
   showgrid="true"
   inkscape:snap-global="false"
   inkscape:zoom="12.131875"
   inkscape:cx="11.935243"
   inkscape:cy="25"
   inkscape:window-x="4"
   inkscape:window-y="0"
   inkscape:window-maximized="1"
   inkscape:current-layer="Layer_1"><inkscape:grid
     type="xygrid"
     id="grid2986" /></sodipodi:namedview>
<path
   d="m 28.282862,41.415993 -4.718,0 8.07342,-32.9352755 4.717,0 c 1.482,0 2.961,-1.201 3.305,-2.684 0.342,-1.482 -0.582,-2.686 -2.064,-2.686 l -14.804,0 c -1.482,0 -2.962,1.203 -3.304,2.686 -0.343,1.482 0.582,2.684 2.064,2.684 l 4.716,0 -8.07242,32.9352755 -4.717,0 c -1.482,0 -2.963,1.203 -3.305,2.687 -0.3419999,1.481 0.583,2.684 2.065,2.684 l 14.803,0 c 1.482,0 2.961,-1.201 3.303,-2.684 0.345,-1.484 -0.579226,-2.712905 -2.062,-2.687 z"
   id="path3"
   inkscape:connector-curvature="0"
   sodipodi:nodetypes="sccscsscsccscsscs" />
</svg>