<?xml version="1.0" encoding="UTF-8" standalone="no"?>
<!-- Generator: Adobe Illustrator 16.0.0, SVG Export Plug-In . SVG Version: 6.00 Build 0)  -->

<svg
   xmlns:dc="http://purl.org/dc/elements/1.1/"
   xmlns:cc="http://creativecommons.org/ns#"
   xmlns:rdf="http://www.w3.org/1999/02/22-rdf-syntax-ns#"
   xmlns:svg="http://www.w3.org/2000/svg"
   xmlns="http://www.w3.org/2000/svg"
   xmlns:sodipodi="http://sodipodi.sourceforge.net/DTD/sodipodi-0.dtd"
   xmlns:inkscape="http://www.inkscape.org/namespaces/inkscape"
   version="1.1"
   id="Layer_1"
   x="0px"
   y="0px"
   width="50px"
   height="50px"
   viewBox="0 0 50 50"
   enable-background="new 0 0 50 50"
   xml:space="preserve"
   inkscape:version="0.48.2 r9819"
   sodipodi:docname="link.svg"><metadata
   id="metadata13"><rdf:RDF><cc:Work
       rdf:about=""><dc:format>image/svg+xml</dc:format><dc:type
         rdf:resource="http://purl.org/dc/dcmitype/StillImage" /></cc:Work></rdf:RDF></metadata><defs
   id="defs11" /><sodipodi:namedview
   pagecolor="#ffffff"
   bordercolor="#666666"
   borderopacity="1"
   objecttolerance="10"
   gridtolerance="10"
   guidetolerance="10"
   inkscape:pageopacity="0"
   inkscape:pageshadow="2"
   inkscape:window-width="1436"
   inkscape:window-height="856"
   id="namedview9"
   showgrid="true"
   inkscape:snap-global="false"
   inkscape:zoom="12.131875"
   inkscape:cx="35.01494"
   inkscape:cy="25"
   inkscape:window-x="4"
   inkscape:window-y="0"
   inkscape:window-maximized="1"
   inkscape:current-layer="Layer_1"><inkscape:grid
     type="xygrid"
     id="grid2990" /></sodipodi:namedview>
<g
   id="g3"
   transform="translate(0,-0.24728247)">
	<path
   d="m 42.984,18.88 -0.928,4.728 c 1.793,1.654 3.851702,4.244427 3.851702,7.066427 0,4.982 -4.476702,10.66955 -8.883702,10.66955 l -13.95,0 c -4.403,0 -8.550992,-5.768977 -8.550992,-10.751977 0,-4.98 4.148227,-9.642498 8.550992,-9.596992 l 7.975,0 0,-3.108733 -7.975,0 c -6.605,0 -11.961,5.235725 -11.961,12.704725 0,7.474 5.355,13.53 11.961,13.53 l 13.955,0 c 6.604,0 11.962,-6.059 11.962,-13.53 0,-5.014 -2.419,-9.379 -6.007,-11.711 z"
   id="path5"
   inkscape:connector-curvature="0"
   sodipodi:nodetypes="ccsssssccsssssc" />
	<path
   d="m 13.107,9.3912976 13.956,0 c 3.713,0 8.556977,3.7837024 8.556977,9.9272024 0,6.1435 -4.843977,10.091057 -8.556977,10.091057 l -7.976,0 0,3.440443 7.976,0 c 5.867,0 10.734,-4.785 11.752,-11.089 l -0.291,-0.188 c 0,0 0.105,0.049 0.302,0.136 -0.002,0.018 -0.007,0.034 -0.011,0.05 l 0.209,0.135 0,-0.099 c -0.065,-0.028 -0.146,-0.062 -0.197,-0.086 0.123,-0.777 0.197,-1.574 0.197,-2.392 0,-0.709 -0.062,-1.399 -0.155,-2.079 -0.113,-0.021 -0.229,-0.031 -0.345,-0.048 l 0,-0.128 0.312,0 c 0.011,0.06 0.022,0.116 0.031,0.175 0.054,0.009 0.104,0.026 0.157,0.036 l 0,-0.212 -0.188,0 C 37.883,10.666 32.986,5.787 27.063,5.787 l -13.956,0 c -6.606,0 -11.962,6.059 -11.962,13.53 0,5.016 2.419,9.384 6.004,11.721 L 8.077,26.313 C 6.281,24.66 4.5550076,22.141 4.5550076,19.315 4.5550076,14.336 8.702,9.3912976 13.107,9.3912976 z"
   id="path7"
   inkscape:connector-curvature="0"
   sodipodi:nodetypes="sscsccscccccccsccccccccsssccss" />
</g>
</svg>