<?xml version="1.0" encoding="UTF-8" standalone="no"?>
<!-- Generator: Adobe Illustrator 16.0.0, SVG Export Plug-In . SVG Version: 6.00 Build 0)  -->

<svg
   xmlns:dc="http://purl.org/dc/elements/1.1/"
   xmlns:cc="http://creativecommons.org/ns#"
   xmlns:rdf="http://www.w3.org/1999/02/22-rdf-syntax-ns#"
   xmlns:svg="http://www.w3.org/2000/svg"
   xmlns="http://www.w3.org/2000/svg"
   xmlns:sodipodi="http://sodipodi.sourceforge.net/DTD/sodipodi-0.dtd"
   xmlns:inkscape="http://www.inkscape.org/namespaces/inkscape"
   version="1.1"
   id="Layer_1"
   x="0px"
   y="0px"
   width="50px"
   height="50px"
   viewBox="0 0 50 50"
   enable-background="new 0 0 50 50"
   xml:space="preserve"
   inkscape:version="0.48.2 r9819"
   sodipodi:docname="list.svg"><metadata
   id="metadata3802"><rdf:RDF><cc:Work
       rdf:about=""><dc:format>image/svg+xml</dc:format><dc:type
         rdf:resource="http://purl.org/dc/dcmitype/StillImage" /><dc:title /></cc:Work></rdf:RDF></metadata><defs
   id="defs3800" /><sodipodi:namedview
   pagecolor="#ffffff"
   bordercolor="#666666"
   borderopacity="1"
   objecttolerance="10"
   gridtolerance="10"
   guidetolerance="10"
   inkscape:pageopacity="0"
   inkscape:pageshadow="2"
   inkscape:window-width="1436"
   inkscape:window-height="856"
   id="namedview3798"
   showgrid="true"
   inkscape:zoom="10.31"
   inkscape:cx="10.539568"
   inkscape:cy="20.972483"
   inkscape:window-x="4"
   inkscape:window-y="0"
   inkscape:window-maximized="1"
   inkscape:current-layer="Layer_1"
   inkscape:snap-global="false"><inkscape:grid
     type="xygrid"
     id="grid3804" /></sodipodi:namedview>

<path
   d="m 10.343685,10.403918 h 29.605769 c 1.403501,0 2.543453,-0.4334528 2.545242,-0.9698501 0,-0.5363967 -1.140849,-0.9693977 -2.545242,-0.9693977 H 10.343685 c -1.4026095,0 -2.5416708,0.433001 -2.5416708,0.9693977 0,0.5363973 1.1381681,0.9698501 2.5416708,0.9698501 z"
   id="path3792"
   inkscape:connector-curvature="0" />


<path
   inkscape:connector-curvature="0"
   id="path2997"
   d="m 10.246692,20.685199 h 29.605769 c 1.403501,0 2.543453,-0.433453 2.545242,-0.969851 0,-0.536396 -1.140849,-0.969397 -2.545242,-0.969397 H 10.246692 c -1.4026097,0 -2.541671,0.433001 -2.541671,0.969397 0,0.536398 1.1381681,0.969851 2.541671,0.969851 z" /><path
   d="m 10.343685,31.160465 h 29.605769 c 1.403501,0 2.543453,-0.433453 2.545242,-0.969851 0,-0.536396 -1.140849,-0.969397 -2.545242,-0.969397 H 10.343685 c -1.4026095,0 -2.5416708,0.433001 -2.5416708,0.969397 0,0.536398 1.1381681,0.969851 2.5416708,0.969851 z"
   id="path2999"
   inkscape:connector-curvature="0" /><path
   inkscape:connector-curvature="0"
   id="path3003"
   d="m 10.246692,41.538739 h 29.605769 c 1.403501,0 2.543453,-0.433453 2.545242,-0.969851 0,-0.536396 -1.140849,-0.969397 -2.545242,-0.969397 H 10.246692 c -1.4026097,0 -2.541671,0.433001 -2.541671,0.969397 0,0.536398 1.1381681,0.969851 2.541671,0.969851 z" /></svg>