<?xml version="1.0" encoding="utf-8"?>
<!-- Generator: Adobe Illustrator 16.0.0, SVG Export Plug-In . SVG Version: 6.00 Build 0)  -->
<!DOCTYPE svg PUBLIC "-//W3C//DTD SVG 1.1//EN" "http://www.w3.org/Graphics/SVG/1.1/DTD/svg11.dtd">
<svg version="1.1" id="Layer_1" xmlns="http://www.w3.org/2000/svg" xmlns:xlink="http://www.w3.org/1999/xlink" x="0px" y="0px"
	 width="50px" height="50px" viewBox="0 0 50 50" enable-background="new 0 0 50 50" xml:space="preserve">
<path fill="#231F20" d="M35.5,21.792h-0.75v-2.667c0-5.376-4.374-9.75-9.75-9.75s-9.75,4.374-9.75,9.75v2.667H14.5
	c-1.104,0-2,0.896-2,2v14.834c0,1.104,0.896,2,2,2h21c1.104,0,2-0.896,2-2V23.792C37.5,22.688,36.604,21.792,35.5,21.792z
	 M20.25,19.125c0-2.62,2.131-4.75,4.75-4.75s4.75,2.131,4.75,4.75v2.667h-9.5V19.125z"/>
</svg>
