<?xml version="1.0" encoding="UTF-8" standalone="no"?>
<!-- Generator: Adobe Illustrator 16.0.0, SVG Export Plug-In . SVG Version: 6.00 Build 0)  -->

<svg
   xmlns:dc="http://purl.org/dc/elements/1.1/"
   xmlns:cc="http://creativecommons.org/ns#"
   xmlns:rdf="http://www.w3.org/1999/02/22-rdf-syntax-ns#"
   xmlns:svg="http://www.w3.org/2000/svg"
   xmlns="http://www.w3.org/2000/svg"
   xmlns:sodipodi="http://sodipodi.sourceforge.net/DTD/sodipodi-0.dtd"
   xmlns:inkscape="http://www.inkscape.org/namespaces/inkscape"
   version="1.1"
   id="Layer_1"
   x="0px"
   y="0px"
   width="50px"
   height="50px"
   viewBox="0 0 50 50"
   enable-background="new 0 0 50 50"
   xml:space="preserve"
   inkscape:version="0.48.2 r9819"
   sodipodi:docname="mention.svg"><metadata
   id="metadata3866"><rdf:RDF><cc:Work
       rdf:about=""><dc:format>image/svg+xml</dc:format><dc:type
         rdf:resource="http://purl.org/dc/dcmitype/StillImage" /></cc:Work></rdf:RDF></metadata><defs
   id="defs3864" /><sodipodi:namedview
   pagecolor="#ffffff"
   bordercolor="#666666"
   borderopacity="1"
   objecttolerance="10"
   gridtolerance="10"
   guidetolerance="10"
   inkscape:pageopacity="0"
   inkscape:pageshadow="2"
   inkscape:window-width="1436"
   inkscape:window-height="856"
   id="namedview3862"
   showgrid="true"
   inkscape:zoom="13.58"
   inkscape:cx="15.414748"
   inkscape:cy="27.311917"
   inkscape:window-x="4"
   inkscape:window-y="0"
   inkscape:window-maximized="1"
   inkscape:current-layer="Layer_1"><inkscape:grid
     type="xygrid"
     id="grid3930" /></sodipodi:namedview>
<path
   d="M 44.380831,15.034188 C 43.261339,12.752061 41.730334,10.767506 39.822108,9.13141 37.922732,7.4997388 35.673791,6.2098892 33.137234,5.2961533 30.600677,4.3868422 27.80637,3.9255494 24.827326,3.9255494 c -2.992319,0 -5.934858,0.6261193 -8.745758,1.8606583 -2.796519,1.2267956 -5.278871,2.9093525 -7.3773665,5.0012103 -2.0940698,2.088539 -3.7821582,4.541024 -5.0189097,7.286657 -1.2411763,2.755588 -1.8706142,5.554319 -1.8706142,8.319863 0,2.757801 0.4546555,5.292146 1.3529043,7.535556 0.9004613,2.251153 2.2124356,4.256726 3.8983115,5.964726 1.6858754,1.708001 3.7467596,3.091879 6.1251276,4.112918 2.381687,1.02657 5.06869,1.54428 7.989105,1.54428 4.53328,0 8.781157,-0.955772 12.628582,-2.849617 0.911524,-0.448018 1.047588,-1.164847 1.047588,-1.554236 0,-0.627225 -0.185844,-1.112855 -0.54979,-1.445827 -0.350671,-0.320803 -0.74006,-0.483417 -1.161529,-0.483417 -0.257748,0 -0.747803,0.08407 -2.418192,0.716829 -1.163741,0.442487 -2.579699,0.88055 -4.212477,1.299806 -1.279894,0.338503 -3.075285,0.507754 -5.337501,0.507754 -4.72355,0 -8.600843,-1.589635 -11.525683,-4.725762 C 8.3468936,35.6386 7.3468727,34.044541 6.6776109,32.276805 6.0061368,30.504644 5.6654217,28.489115 5.6654217,26.283317 c 0,-2.192524 0.5177099,-4.464695 1.5376427,-6.752354 1.0221452,-2.295402 2.4369976,-4.33748 4.2058396,-6.069817 1.764417,-1.733443 3.849638,-3.12949 6.198138,-4.1538474 2.336332,-1.0188266 4.856297,-1.5354303 7.486882,-1.5354303 4.505625,0 8.421636,1.2721505 11.64073,3.7832647 1.611759,1.243389 2.92484,2.814218 3.906055,4.668239 0.974578,1.842959 1.465739,4.166016 1.465739,6.905012 0,2.729039 -0.568596,5.041034 -1.692514,6.875143 -1.085199,1.777692 -2.622842,2.640542 -4.697,2.640542 -0.784309,0 -1.296487,-0.242262 -1.609547,-0.766609 -0.358415,-0.595145 -0.540941,-1.282106 -0.540941,-2.039866 0,-0.829663 0.121684,-1.976811 0.366159,-3.406044 l 1.769948,-9.983616 c 0.04425,-0.223456 0.06305,-0.380539 0.06305,-0.473461 v -0.577446 c 0,-0.462399 -0.240049,-0.934754 -0.720147,-1.406002 -0.481205,-0.46793 -1.055332,-0.704661 -1.712426,-0.704661 -0.641606,0 -1.205777,0.190269 -1.674813,0.564171 -0.478993,0.381645 -0.767715,0.88608 -0.857319,1.488969 -1.872827,-1.465738 -4.058713,-2.208011 -6.510092,-2.208011 -3.55649,0 -6.620713,1.162635 -9.105278,3.454719 -1.22569,1.127236 -2.233454,2.538769 -2.993426,4.192565 -0.762184,1.656008 -1.148254,3.740122 -1.148254,6.190395 0,2.513327 0.824132,4.689257 2.453591,6.473586 1.77548,1.850703 4.196991,2.790988 7.199266,2.790988 3.491223,0 6.395045,-1.15821 8.629605,-3.440338 0.08629,0.212394 0.18695,0.430319 0.300891,0.653775 1.063075,1.817516 3.058692,2.737889 5.930433,2.737889 3.502286,0 6.25345,-1.477907 8.176056,-4.402747 1.550921,-2.461334 2.336336,-5.529982 2.336336,-9.121872 0.0022,-2.769969 -0.565277,-5.335288 -1.689195,-7.626265 z M 30,20 29.189143,24.626202 c -0.238943,1.404897 -0.61727,2.568638 -1.122811,3.459143 -1.300913,2.329695 -3.327503,3.462462 -6.18597,3.462462 -1.682557,0 -3.025506,-0.434743 -3.99234,-1.286531 -1.092943,-0.975684 -1.647158,-2.434786 -1.647158,-4.33748 0,-2.427042 0.844044,-4.417128 2.505583,-5.916053 1.536536,-1.376135 3.475736,-2.074158 5.761182,-2.074158 C 26.74772,17.933585 28.595104,18.62829 30,20 z"
   id="path3860"
   inkscape:connector-curvature="0" />
</svg>