<?xml version="1.0" encoding="utf-8"?>
<!-- Generator: Adobe Illustrator 16.0.0, SVG Export Plug-In . SVG Version: 6.00 Build 0)  -->
<!DOCTYPE svg PUBLIC "-//W3C//DTD SVG 1.1//EN" "http://www.w3.org/Graphics/SVG/1.1/DTD/svg11.dtd">
<svg version="1.1" id="Layer_1" xmlns="http://www.w3.org/2000/svg" xmlns:xlink="http://www.w3.org/1999/xlink" x="0px" y="0px"
	 width="50px" height="50px" viewBox="0 0 50 50" enable-background="new 0 0 50 50" xml:space="preserve">
<g>
	<path d="M43.618,40.035H6.835c-1.039,0-1.882-0.842-1.882-1.882s0.843-1.882,1.882-1.882h36.783c1.04,0,1.882,0.842,1.882,1.882
		S44.658,40.035,43.618,40.035z"/>
	<path d="M43.618,14.388H6.835c-1.039,0-1.882-0.842-1.882-1.882c0-1.039,0.843-1.882,1.882-1.882h36.783
		c1.04,0,1.882,0.843,1.882,1.882C45.5,13.546,44.658,14.388,43.618,14.388z"/>
	<path d="M43.618,27.212H6.835c-1.039,0-1.882-0.844-1.882-1.883s0.843-1.882,1.882-1.882h36.783c1.04,0,1.882,0.843,1.882,1.882
		S44.658,27.212,43.618,27.212z"/>
</g>
</svg>
