<?xml version="1.0" encoding="utf-8"?>
<!-- Generator: Adobe Illustrator 16.0.0, SVG Export Plug-In . SVG Version: 6.00 Build 0)  -->
<!DOCTYPE svg PUBLIC "-//W3C//DTD SVG 1.1//EN" "http://www.w3.org/Graphics/SVG/1.1/DTD/svg11.dtd">
<svg version="1.1" id="Layer_1" xmlns="http://www.w3.org/2000/svg" xmlns:xlink="http://www.w3.org/1999/xlink" x="0px" y="0px"
	 width="15.442px" height="15.441px" viewBox="0 0 15.442 15.441" enable-background="new 0 0 15.442 15.441" xml:space="preserve">
<path d="M13.86,6.812L9.394,2.345c-0.391-0.391-1.023-0.391-1.414,0S7.589,3.369,7.979,3.759l2.681,2.682H2.558
	c-0.552,0-1,0.447-1,1s0.448,1,1,1h8.396l-3.237,3.235c-0.391,0.391-0.391,1.023,0,1.414c0.195,0.195,0.451,0.293,0.707,0.293
	s0.512-0.098,0.707-0.293l4.467-4.463c0.109-0.109,0.18-0.24,0.229-0.378c0.01-0.009,0.023-0.013,0.033-0.022
	C14.25,7.835,14.25,7.203,13.86,6.812z"/>
</svg>
