<?xml version="1.0" encoding="UTF-8" standalone="no"?>
<!-- Generator: Adobe Illustrator 16.0.0, SVG Export Plug-In . SVG Version: 6.00 Build 0)  -->

<svg
   xmlns:dc="http://purl.org/dc/elements/1.1/"
   xmlns:cc="http://creativecommons.org/ns#"
   xmlns:rdf="http://www.w3.org/1999/02/22-rdf-syntax-ns#"
   xmlns:svg="http://www.w3.org/2000/svg"
   xmlns="http://www.w3.org/2000/svg"
   xmlns:sodipodi="http://sodipodi.sourceforge.net/DTD/sodipodi-0.dtd"
   xmlns:inkscape="http://www.inkscape.org/namespaces/inkscape"
   version="1.1"
   id="Layer_1"
   x="0px"
   y="0px"
   width="50px"
   height="50px"
   viewBox="0 0 50 50"
   enable-background="new 0 0 50 50"
   xml:space="preserve"
   inkscape:version="0.48.2 r9819"
   sodipodi:docname="new.svg"><metadata
   id="metadata3558"><rdf:RDF><cc:Work
       rdf:about=""><dc:format>image/svg+xml</dc:format><dc:type
         rdf:resource="http://purl.org/dc/dcmitype/StillImage" /><dc:title /></cc:Work></rdf:RDF></metadata><defs
   id="defs3556" /><sodipodi:namedview
   pagecolor="#ffffff"
   bordercolor="#666666"
   borderopacity="1"
   objecttolerance="10"
   gridtolerance="10"
   guidetolerance="10"
   inkscape:pageopacity="0"
   inkscape:pageshadow="2"
   inkscape:window-width="1436"
   inkscape:window-height="856"
   id="namedview3554"
   showgrid="true"
   inkscape:zoom="10.93"
   inkscape:cx="13.334009"
   inkscape:cy="27.082248"
   inkscape:window-x="4"
   inkscape:window-y="0"
   inkscape:window-maximized="1"
   inkscape:current-layer="Layer_1"
   inkscape:snap-grids="false"><inkscape:grid
     type="xygrid"
     id="grid3562" /></sodipodi:namedview>
<g
   id="g3548"
   transform="translate(-1.3954404,2.2399652)">
	<path
   d="m 46.146584,19.126 -16,0 0,-16 c 0,-1.432 -2.300314,-2 -3.439314,-2 -1.132,0 -3.560686,0.6414851 -3.560686,2 l 0,16 -16.9999994,0 c -1.432,0 -2,2.275332 -2,3.406332 0,1.137 0.5680003,3.593668 2.0000003,3.593668 l 16.9999991,0 0,17 c 0,1.433 2.362723,2 3.494723,2 1.139,0 3.505277,-0.567 3.505277,-2 l 0,-17 16,0 c 1.432,0 2,-2.225797 2,-3.362797 0,-1.131 -0.570471,-3.721293 -2,-3.637203 z"
   id="path3550"
   inkscape:connector-curvature="0"
   sodipodi:nodetypes="scssscssscssscsss" />
	
</g>
</svg>