<?xml version="1.0" encoding="UTF-8" standalone="no"?>
<!-- Generator: Adobe Illustrator 16.0.0, SVG Export Plug-In . SVG Version: 6.00 Build 0)  -->

<svg
   xmlns:dc="http://purl.org/dc/elements/1.1/"
   xmlns:cc="http://creativecommons.org/ns#"
   xmlns:rdf="http://www.w3.org/1999/02/22-rdf-syntax-ns#"
   xmlns:svg="http://www.w3.org/2000/svg"
   xmlns="http://www.w3.org/2000/svg"
   xmlns:sodipodi="http://sodipodi.sourceforge.net/DTD/sodipodi-0.dtd"
   xmlns:inkscape="http://www.inkscape.org/namespaces/inkscape"
   version="1.1"
   id="Layer_1"
   x="0px"
   y="0px"
   width="50px"
   height="50px"
   viewBox="0 0 50 50"
   enable-background="new 0 0 50 50"
   xml:space="preserve"
   inkscape:version="0.48.2 r9819"
   sodipodi:docname="number.svg"><metadata
   id="metadata3050"><rdf:RDF><cc:Work
       rdf:about=""><dc:format>image/svg+xml</dc:format><dc:type
         rdf:resource="http://purl.org/dc/dcmitype/StillImage" /><dc:title /></cc:Work></rdf:RDF></metadata><defs
   id="defs3048" /><sodipodi:namedview
   pagecolor="#ffffff"
   bordercolor="#666666"
   borderopacity="1"
   objecttolerance="10"
   gridtolerance="10"
   guidetolerance="10"
   inkscape:pageopacity="0"
   inkscape:pageshadow="2"
   inkscape:window-width="1436"
   inkscape:window-height="856"
   id="namedview3046"
   showgrid="true"
   inkscape:zoom="15"
   inkscape:cx="29.898321"
   inkscape:cy="17.210839"
   inkscape:window-x="4"
   inkscape:window-y="0"
   inkscape:window-maximized="1"
   inkscape:current-layer="g3032"
   inkscape:snap-grids="true"
   inkscape:snap-global="false"><inkscape:grid
     type="xygrid"
     id="grid3052" /></sodipodi:namedview>
<g
   id="g3032">
	<path
   d="M 19.057511,9 H 46.029286 C 47.307121,9 48.342921,8.3296089 48.342921,7.4993017 48.342921,6.670391 47.307121,6 46.029286,6 H 19.057511 C 17.777769,6 16.742921,6.6696927 16.742921,7.4993017 16.742921,8.3296089 17.778721,9 19.057511,9 z"
   id="path3034"
   inkscape:connector-curvature="0" />
	<path
   d="M 45.819697,23.466667 H 18.847922 c -1.27974,0 -2.314589,0.669693 -2.314589,1.499302 0,0.830307 1.0358,1.500698 2.314589,1.500698 h 26.971775 c 1.277836,0 2.313636,-0.670391 2.313636,-1.500698 0,-0.829609 -1.0358,-1.499302 -2.313636,-1.499302 z"
   id="path3036"
   inkscape:connector-curvature="0" />
	<path
   d="M 45.83434,41.033333 H 19.033273 c -1.271643,0 -2.29994,0.670703 -2.29994,1.5 0,0.829297 1.029243,1.5 2.29994,1.5 H 45.83434 c 1.269749,0 2.298993,-0.670703 2.298993,-1.5 0,-0.829297 -1.029244,-1.5 -2.298993,-1.5 z"
   id="path3038"
   inkscape:connector-curvature="0" />
	
	
	
<g
   id="g3917"
   transform="translate(-23.711408,20.297208)">
	
	
	
	<path
   inkscape:connector-curvature="0"
   id="path3925"
   d="m 29.097074,-14.385208 0.681,-0.312 0,6.271 -1.872,0 c -0.386,0 -0.729,0.142 -0.998,0.414 -0.258,0.268 -0.396,0.608 -0.396,0.983 0,0.38 0.141,0.72 0.409,0.986 0.263,0.257 0.604022,0.3980961 0.985,0.394 l 6.200667,-0.066667 c 0.376978,-0.00405 0.717,-0.133 0.98,-0.382 0.281,-0.266 0.43,-0.611 0.43,-0.998 0,-0.383 -0.143,-0.725 -0.418,-0.996 -0.268,-0.26 -0.612412,-0.4186759 -0.992,-0.401 l -1.431667,0.066667 0,-8.334 c 0,-0.403 -0.152,-0.764 -0.442,-1.049 -0.284,-0.277 -0.645,-0.423 -1.043,-0.423 l -0.323,0 c -0.255,0 -0.508,0.059 -0.771,0.188 l -2.069,1.058 c -0.52,0.253 -0.821,0.701 -0.821,1.227 0,0.548 0.224,0.884 0.408,1.064 0.667,0.654 1.157,0.435 1.483,0.31 z"
   sodipodi:nodetypes="cccscscsscscscscssccscc" />
	<path
   inkscape:connector-curvature="0"
   id="path3927"
   d="m 31.141408,-2.241208 c -1.24,0 -2.406,0.262 -3.486,0.7910001 -0.434,0.232 -0.685,0.62399994 -0.685,1.07599994 0,0.477 0.19,0.772 0.349,0.935 0.402,0.41200003 1.065,0.42400003 1.438,0.235 0.688,-0.294 1.415,-0.446 2.156,-0.446 0.601,0 1.045,0.116 1.294,0.338 0.084,0.07 0.143,0.155 0.182,0.25800003 0.034,0.089 0.075,0.25400003 0.075,0.53500003 0,0.14 -0.082,0.305 -0.245,0.486 -0.244,0.276 -0.559,0.548 -0.932,0.815 -0.41,0.288 -0.854,0.575 -1.33,0.864 -0.518,0.313 -1.005,0.649 -1.449,1 -0.47,0.374 -0.869,0.787 -1.186,1.229 -0.365,0.511 -0.551,1.091 -0.551,1.7310003 0,0.404 0.148,0.758 0.435,1.031 0.271,0.254 0.624,0.393 1.017,0.393 l 6.025333,0 c 0.351,0 0.665,-0.123 0.914,-0.359 0.26,-0.244 0.399,-0.564 0.399,-0.923 0,-0.359 -0.136,-0.6770003 -0.387,-0.9240003 -0.248,-0.246 -0.57,-0.377 -0.925,-0.377 l -3.780333,0 c 0.155,-0.107 0.318,-0.218 0.485,-0.33 l 1.305,-0.859 c 0.476,-0.316 0.921,-0.653 1.328,-1.013 1.011,-0.912 1.525,-1.912 1.525,-2.957 0,-1.05200006 -0.406,-1.92400006 -1.201,-2.585 -0.745,-0.6280001 -1.676,-0.9440001 -2.77,-0.9440001 z"
   sodipodi:nodetypes="scsccsccscccccscsscscsccccscs" />
	<path
   inkscape:connector-curvature="0"
   id="path3929"
   d="m 34.349408,20.552793 c 0.629,-0.584 0.955,-1.367 0.955,-2.32 0,-1.053 -0.422,-1.918 -1.217,-2.504 -0.741,-0.549 -1.743,-0.826 -2.976,-0.826 -1.2,0 -2.326,0.277 -3.354,0.826 -0.429,0.232 -0.676,0.625 -0.676,1.086 0,0.511 0.22,0.812 0.406,0.977 0.425,0.379 1.065,0.381 1.421,0.204 0.623,-0.274 1.295,-0.413 1.995,-0.413 0.795,0 1.166,0.147 1.338,0.271 0.192,0.141 0.272,0.289 0.272,0.509 0,0.254 0,1.024 -2.406,1.024 -0.357,0 -0.682,0.139 -0.941,0.391 -0.263,0.256 -0.403,0.584 -0.403,0.943 0,0.359 0.14,0.686 0.403,0.94 0.259,0.257 0.584,0.39 0.941,0.39 l 0.233,0 c 2.539,0 2.539,0.83 2.539,1.103 0,0.149 -0.027,0.265 -0.081,0.332 -0.281,0.362 -0.948,0.551 -1.926,0.551 -0.757,0 -1.408,-0.104 -1.937,-0.312 -0.727,-0.284 -1.265,-0.193 -1.667,0.271 -0.221,0.26 -0.337,0.567 -0.337,0.895 0,0.537 0.295,0.979 0.842,1.223 1.058,0.42 2.186,0.629 3.353,0.629 1.254,0 2.304,-0.277 3.118,-0.835 0.435,-0.288 0.785,-0.661 1.04,-1.11 0.257,-0.453 0.389,-0.979 0.389,-1.556 0,-0.562 -0.099,-1.053 -0.292,-1.457 -0.242,-0.504 -0.588,-0.916 -1.032,-1.232 z"
   sodipodi:nodetypes="cscscsccscsscscssscsccscsccscc" />
</g></g>
</svg>