<?xml version="1.0" encoding="UTF-8" standalone="no"?>
<!-- Generator: Adobe Illustrator 16.0.0, SVG Export Plug-In . SVG Version: 6.00 Build 0)  -->

<svg
   xmlns:dc="http://purl.org/dc/elements/1.1/"
   xmlns:cc="http://creativecommons.org/ns#"
   xmlns:rdf="http://www.w3.org/1999/02/22-rdf-syntax-ns#"
   xmlns:svg="http://www.w3.org/2000/svg"
   xmlns="http://www.w3.org/2000/svg"
   xmlns:sodipodi="http://sodipodi.sourceforge.net/DTD/sodipodi-0.dtd"
   xmlns:inkscape="http://www.inkscape.org/namespaces/inkscape"
   version="1.1"
   id="Layer_1"
   x="0px"
   y="0px"
   width="50px"
   height="50px"
   viewBox="0 0 50 50"
   enable-background="new 0 0 50 50"
   xml:space="preserve"
   inkscape:version="0.48.2 r9819"
   sodipodi:docname="outdent.svg"><metadata
   id="metadata3437"><rdf:RDF><cc:Work
       rdf:about=""><dc:format>image/svg+xml</dc:format><dc:type
         rdf:resource="http://purl.org/dc/dcmitype/StillImage" /><dc:title /></cc:Work></rdf:RDF></metadata><defs
   id="defs3435" /><sodipodi:namedview
   pagecolor="#ffffff"
   bordercolor="#666666"
   borderopacity="1"
   objecttolerance="10"
   gridtolerance="10"
   guidetolerance="10"
   inkscape:pageopacity="0"
   inkscape:pageshadow="2"
   inkscape:window-width="1436"
   inkscape:window-height="856"
   id="namedview3433"
   showgrid="true"
   inkscape:zoom="15"
   inkscape:cx="25.477992"
   inkscape:cy="26.404603"
   inkscape:window-x="4"
   inkscape:window-y="0"
   inkscape:window-maximized="1"
   inkscape:current-layer="g3421"
   inkscape:snap-grids="false"
   inkscape:snap-global="false"><inkscape:grid
     type="xygrid"
     id="grid3439" /></sodipodi:namedview>
<g
   id="g3421"
   transform="translate(-0.1874625,0.232)">
	<path
   d="m 1.9668274,19.881527 8.9879366,-9.646465 c 1.023623,-1.0991602 2.6835,-1.0991602 3.707123,0 1.024592,1.094318 1.024592,2.876218 0,3.979252 l -7.1343741,7.660228 7.1343741,7.663133 c 1.024592,1.101097 1.024592,2.882997 0,3.983124 -0.512295,0.549096 -1.182444,0.827035 -1.853561,0.827035 -0.669181,0 -1.340298,-0.277939 -1.853562,-0.824128 L 1.9668274,23.864651 C 1.453563,23.316524 1.1978993,22.596017 1.1978993,21.87551 c 0,-0.717602 0.2556637,-1.440045 0.7689281,-1.993983 z"
   id="path3423"
   inkscape:connector-curvature="0" />
	<path
   d="M 46.070293,37.873069 H 19.102724 c -1.278634,0 -2.315262,0.671403 -2.315262,1.500699 0,0.8272 1.037581,1.499301 2.315262,1.499301 h 26.967569 c 1.278637,0 2.315264,-0.672799 2.31717,-1.499301 -9.53e-4,-0.828598 -1.039487,-1.500699 -2.31717,-1.500699 z"
   id="path3425"
   inkscape:connector-curvature="0" />
	<path
   d="M 46.296367,20.147257 H 30.745225 c -1.117098,0 -2.024429,0.668919 -2.024429,1.498602 0,0.832479 0.907331,1.501398 2.024429,1.501398 h 15.551143 c 1.117099,0 2.022764,-0.668919 2.024428,-1.501398 -8.34e-4,-0.829683 -0.908164,-1.498602 -2.024428,-1.498602 z"
   id="path3427"
   inkscape:connector-curvature="0" />
	<path
   d="M 46.176805,11.472152 H 30.731452 c -1.109501,0 -2.010656,0.669616 -2.010656,1.495848 0,0.826232 0.901157,1.495152 2.010656,1.495152 h 15.445353 c 1.109499,0 2.010658,-0.66892 2.010658,-1.495152 0,-0.826232 -0.901986,-1.495848 -2.010658,-1.495848 z"
   id="path3429"
   inkscape:connector-curvature="0" />
	<path
   d="m 19.211635,5.5962867 h 26.683102 c 1.265147,0 2.290839,-0.670391 2.292726,-1.500699 0,-0.8289103 -1.027578,-1.4993014 -2.292726,-1.4993014 h -26.6831 c -1.26515,0 -2.290842,0.6696928 -2.290842,1.4993014 0,0.830308 1.026635,1.500699 2.290842,1.500699 z"
   id="path3431"
   inkscape:connector-curvature="0" />
<path
   inkscape:connector-curvature="0"
   id="path3091"
   d="M 46.129756,28.967779 H 30.578615 c -1.117099,0 -2.02443,0.668919 -2.02443,1.498602 0,0.832479 0.907331,1.501398 2.02443,1.501398 h 15.551142 c 1.117098,0 2.022764,-0.668919 2.024428,-1.501398 -8.33e-4,-0.829683 -0.908164,-1.498602 -2.024428,-1.498602 z" /></g>
</svg>