<?xml version="1.0" encoding="utf-8"?>
<!-- Generator: Adobe Illustrator 16.0.0, SVG Export Plug-In . SVG Version: 6.00 Build 0)  -->
<!DOCTYPE svg PUBLIC "-//W3C//DTD SVG 1.1//EN" "http://www.w3.org/Graphics/SVG/1.1/DTD/svg11.dtd">
<svg version="1.1" id="Layer_1" xmlns="http://www.w3.org/2000/svg" xmlns:xlink="http://www.w3.org/1999/xlink" x="0px" y="0px"
	 width="50px" height="50px" viewBox="0 0 50 50" enable-background="new 0 0 50 50" xml:space="preserve">
<g>
	<path d="M39.268,41.852H10.964c-1.342,0-2.43,0.961-2.43,2.148c0,1.184,1.089,2.146,2.43,2.146h28.304
		c1.342,0,2.43-0.963,2.432-2.146C41.699,42.814,40.609,41.852,39.268,41.852z"/>
	<path d="M39.268,29.158H20.586c-1.342,0-2.431,0.957-2.431,2.144c0,1.191,1.089,2.148,2.431,2.148h18.682
		c1.342,0,2.43-0.957,2.432-2.148C41.699,30.115,40.609,29.158,39.268,29.158z"/>
	<path d="M39.268,16.462H20.586c-1.342,0-2.431,0.962-2.431,2.149s1.089,2.148,2.431,2.148h18.682c1.342,0,2.432-0.961,2.432-2.148
		S40.609,16.462,39.268,16.462z"/>
	<path d="M10.964,8.064h28.304c1.342,0,2.43-0.96,2.432-2.149c0-1.187-1.09-2.147-2.432-2.147H10.964
		c-1.342,0-2.43,0.959-2.43,2.147C8.534,7.104,9.623,8.064,10.964,8.064z"/>
</g>
</svg>
