<?xml version="1.0" encoding="UTF-8" standalone="no"?>
<!-- Generator: Adobe Illustrator 16.0.0, SVG Export Plug-In . SVG Version: 6.00 Build 0)  -->

<svg
   xmlns:dc="http://purl.org/dc/elements/1.1/"
   xmlns:cc="http://creativecommons.org/ns#"
   xmlns:rdf="http://www.w3.org/1999/02/22-rdf-syntax-ns#"
   xmlns:svg="http://www.w3.org/2000/svg"
   xmlns="http://www.w3.org/2000/svg"
   xmlns:sodipodi="http://sodipodi.sourceforge.net/DTD/sodipodi-0.dtd"
   xmlns:inkscape="http://www.inkscape.org/namespaces/inkscape"
   version="1.1"
   id="Layer_1"
   x="0px"
   y="0px"
   width="50px"
   height="50px"
   viewBox="0 0 50 50"
   enable-background="new 0 0 50 50"
   xml:space="preserve"
   inkscape:version="0.48.2 r9819"
   sodipodi:docname="photo.svg"><metadata
   id="metadata3486"><rdf:RDF><cc:Work
       rdf:about=""><dc:format>image/svg+xml</dc:format><dc:type
         rdf:resource="http://purl.org/dc/dcmitype/StillImage" /></cc:Work></rdf:RDF></metadata><defs
   id="defs3484" /><sodipodi:namedview
   pagecolor="#ffffff"
   bordercolor="#666666"
   borderopacity="1"
   objecttolerance="10"
   gridtolerance="10"
   guidetolerance="10"
   inkscape:pageopacity="0"
   inkscape:pageshadow="2"
   inkscape:window-width="1436"
   inkscape:window-height="856"
   id="namedview3482"
   showgrid="true"
   inkscape:zoom="15"
   inkscape:cx="38.70191"
   inkscape:cy="28.289485"
   inkscape:window-x="4"
   inkscape:window-y="0"
   inkscape:window-maximized="1"
   inkscape:current-layer="Layer_1"
   inkscape:snap-global="false"><inkscape:grid
     type="xygrid"
     id="grid3488" /></sodipodi:namedview>
<g
   id="g3474"
   transform="translate(-0.06666667,-3.1996667)">
	<path
   d="m 47,12.333 c 0,0 -6.886,0 -9,0 -2.891,0 -4.025,-6 -7,-6 H 18 c -2,0 -3,6 -6,6 -3,0 -9,0 -9,0 -1.657,0 -3,1.345 -3,3 v 26 c 0,1.658 1.343,3 3,3 h 44 c 1.657,0 3,-1.342 3,-3 v -26 c 0,-1.655 -1.343,-3 -3,-3 z m -22,27 c -6.627,0 -12,-5.372 -12,-12 0,-6.627 5.373,-12 12,-12 6.628,0 12,5.373 12,12 0,6.628 -5.372,12 -12,12 z m 14.5,-21 c -0.829,0 -1.5,-0.672 -1.5,-1.5 0,-0.828 0.672,-1.5 1.5,-1.5 0.828,0 1.5,0.672 1.5,1.5 0,0.828 -0.671,1.5 -1.5,1.5 z"
   id="path3476"
   inkscape:connector-curvature="0" />
	<path
   d="m 10,9.333 c 0,-0.551 -0.448,-1 -1,-1 H 6 c -0.552,0 -1,0.449 -1,1 0,0.553 0,1 0,1 h 5 c 0,0 0,-0.447 0,-1 z"
   id="path3478"
   inkscape:connector-curvature="0" />
	<circle
   cx="25"
   cy="27.333"
   r="9"
   id="circle3480"
   d="m 34,27.333 c 0,4.970563 -4.029437,9 -9,9 -4.970563,0 -9,-4.029437 -9,-9 0,-4.970563 4.029437,-9 9,-9 4.970563,0 9,4.029437 9,9 z"
   sodipodi:cx="25"
   sodipodi:cy="27.333"
   sodipodi:rx="9"
   sodipodi:ry="9" />
</g>
</svg>