<?xml version="1.0" encoding="utf-8"?>
<!-- Generator: Adobe Illustrator 16.0.0, SVG Export Plug-In . SVG Version: 6.00 Build 0)  -->
<!DOCTYPE svg PUBLIC "-//W3C//DTD SVG 1.1//EN" "http://www.w3.org/Graphics/SVG/1.1/DTD/svg11.dtd">
<svg version="1.1" id="Layer_1" xmlns="http://www.w3.org/2000/svg" xmlns:xlink="http://www.w3.org/1999/xlink" x="0px" y="0px"
	 width="30px" height="30px" viewBox="0 0 30 30" enable-background="new 0 0 30 30" xml:space="preserve">
<g>
	<path d="M20.936,18.45c-0.968-0.437-2.371-1.536-4.474-1.896c0.529-0.589,0.947-1.479,1.363-2.541
		c0.228-0.625,0.188-1.156,0.188-1.895c0-0.569,0.115-1.441-0.037-1.935c-0.455-1.648-1.629-2.104-2.995-2.104
		c-1.385,0-2.559,0.456-3.014,2.104c-0.133,0.495-0.037,1.385-0.037,1.935c0,0.739-0.04,1.27,0.207,1.895
		c0.417,1.061,0.815,1.972,1.364,2.541c-2.084,0.379-3.505,1.479-4.455,1.896c-1.971,0.873-1.971,1.84-1.971,1.84v1.629h15.848
		V20.29C22.924,20.29,22.904,19.323,20.936,18.45z"/>
	<path d="M9.466,17.116c0.643-0.359,1.451-0.813,2.445-1.158c-0.036-0.069-0.066-0.146-0.101-0.215
		c-0.061-0.013-0.116-0.029-0.179-0.04c0.035-0.039,0.066-0.089,0.099-0.13c-0.179-0.384-0.348-0.784-0.511-1.197
		c-0.286-0.725-0.281-1.342-0.276-1.995l0.001-0.261c0-0.142-0.007-0.307-0.014-0.481c-0.024-0.566-0.05-1.207,0.086-1.716
		c0.124-0.446,0.296-0.835,0.51-1.176c-0.348-0.124-0.732-0.175-1.14-0.175c-1.164,0-2.153,0.382-2.538,1.771
		c-0.11,0.415-0.03,1.165-0.03,1.628c0,0.621-0.031,1.069,0.175,1.596c0.351,0.893,0.685,1.659,1.149,2.137
		c-1.756,0.319-2.951,1.245-3.75,1.597c-1.66,0.734-1.66,1.547-1.66,1.547v1.373h2.362c0.021-0.373,0.261-1.658,2.557-2.674
		C8.87,17.452,9.146,17.297,9.466,17.116z"/>
	<path d="M24.592,17.3c-0.812-0.368-1.994-1.292-3.766-1.597c0.447-0.495,0.797-1.244,1.148-2.137
		c0.19-0.527,0.159-0.975,0.159-1.596c0-0.479,0.097-1.213-0.03-1.628c-0.383-1.389-1.373-1.771-2.521-1.771
		c-0.422,0-0.816,0.053-1.172,0.182c0.238,0.375,0.406,0.768,0.508,1.142c0.16,0.518,0.129,1.161,0.1,1.728
		C19.01,11.802,19,11.972,19,12.12l0.002,0.271c0.004,0.643,0.008,1.25-0.26,1.985c-0.158,0.4-0.33,0.8-0.516,1.188
		c0.037,0.045,0.069,0.098,0.108,0.139c-0.067,0.012-0.129,0.031-0.194,0.045c-0.033,0.064-0.062,0.132-0.095,0.195
		c1.021,0.348,1.843,0.812,2.494,1.182c0.312,0.177,0.58,0.328,0.791,0.424c2.285,1.012,2.545,2.288,2.571,2.671h2.363v-1.372
		C26.268,18.848,26.252,18.034,24.592,17.3z"/>
</g>
</svg>
