<?xml version="1.0" encoding="utf-8"?>
<!-- Generator: Adobe Illustrator 16.0.0, SVG Export Plug-In . SVG Version: 6.00 Build 0)  -->
<!DOCTYPE svg PUBLIC "-//W3C//DTD SVG 1.1//EN" "http://www.w3.org/Graphics/SVG/1.1/DTD/svg11.dtd">
<svg version="1.1" id="Layer_1" xmlns="http://www.w3.org/2000/svg" xmlns:xlink="http://www.w3.org/1999/xlink" x="0px" y="0px"
	 width="30px" height="30px" viewBox="0 0 30 30" enable-background="new 0 0 30 30" xml:space="preserve">
<g>
	<polygon points="23.226,9.186 6.745,9.186 14.985,15.952 	"/>
	<polygon points="5.781,9.688 5.781,20.09 12.145,14.913 	"/>
	<path d="M17.14,15.477l-1.74,1.429c-0.093,0.076-0.205,0.113-0.316,0.113c-0.033,0-0.064-0.016-0.098-0.021
		c-0.032,0.006-0.063,0.021-0.097,0.021c-0.111,0-0.224-0.037-0.317-0.113l-1.639-1.346l-6.457,5.254h17.188l-6.452-5.25
		C17.182,15.54,17.163,15.507,17.14,15.477z"/>
	<polygon points="17.91,14.844 24.219,19.977 24.219,9.665 	"/>
</g>
</svg>
