<?xml version="1.0" encoding="utf-8"?>
<!-- Generator: Adobe Illustrator 16.0.0, SVG Export Plug-In . SVG Version: 6.00 Build 0)  -->
<!DOCTYPE svg PUBLIC "-//W3C//DTD SVG 1.1//EN" "http://www.w3.org/Graphics/SVG/1.1/DTD/svg11.dtd">
<svg version="1.1" id="Layer_1" xmlns="http://www.w3.org/2000/svg" xmlns:xlink="http://www.w3.org/1999/xlink" x="0px" y="0px"
	 width="30px" height="30px" viewBox="0 0 30 30" enable-background="new 0 0 30 30" xml:space="preserve">
<path d="M24.916,14.684c0-5.438-4.424-9.863-9.862-9.863c-5.439,0-9.863,4.424-9.863,9.863c0,5.438,4.424,9.863,9.863,9.863
	c2.522,0,4.82-0.961,6.566-2.525c-0.958,0.768,0.075-0.08,0.13-0.118C23.691,20.101,24.916,17.535,24.916,14.684z M6.69,14.684
	c0-2.489,1.099-4.721,2.83-6.254c-2.943,3.75-0.186,4.284,0.167,4.636c0.36,0.359,3.776,1.798,0.359,3.416
	c-2.336,1.107-1.645,2.719-1.032,3.972C7.579,18.951,6.69,16.922,6.69,14.684z M15.054,23.047c-0.125,0-0.248-0.014-0.372-0.02
	c-0.332-0.652-0.68-1.58-0.139-2.229c0.9-1.079,2.337-1.439,2.518-1.799c0.18-0.359,0.18-1.979-3.057-3.417s0.359-2.337,0.359-2.337
	s3.596,2.158,2.698,0.18c-0.899-1.979,0.898-1.259,1.438-1.978c0.539-0.72,1.26-0.181,1.26-1.799c0-1.393-0.796-2.248-1.02-2.461
	c2.675,1.321,4.541,4.024,4.662,7.174c-0.665,0.205-3.667,1.385-2.385,5.716c0.039,0.129,0.068,0.228,0.104,0.345
	C19.594,22.034,17.441,23.047,15.054,23.047z"/>
</svg>
