<?xml version="1.0" encoding="utf-8"?>
<!-- Generator: Adobe Illustrator 16.0.0, SVG Export Plug-In . SVG Version: 6.00 Build 0)  -->
<!DOCTYPE svg PUBLIC "-//W3C//DTD SVG 1.1//EN" "http://www.w3.org/Graphics/SVG/1.1/DTD/svg11.dtd">
<svg version="1.1" id="Layer_1" xmlns="http://www.w3.org/2000/svg" xmlns:xlink="http://www.w3.org/1999/xlink" x="0px" y="0px"
	 width="30px" height="30px" viewBox="0 0 30 30" enable-background="new 0 0 30 30" xml:space="preserve">
<g>
	<path d="M19.73,13.461l-0.244,1.197c0.475,0.42,0.779,1.056,0.779,1.77c0,1.263-0.943,2.286-2.107,2.286h-3.685
		c-1.164,0-2.106-1.023-2.106-2.286c0-1.261,0.942-2.285,2.106-2.285h2.107v-1.142h-2.107c-1.744,0-3.16,1.534-3.16,3.427
		c0,1.894,1.416,3.429,3.16,3.429h3.685c1.744,0,3.16-1.537,3.16-3.429C21.318,15.157,20.68,14.053,19.73,13.461z"/>
	<path d="M11.841,11.286h3.686c0.981,0,1.803,0.729,2.038,1.715c0.043,0.183,0.068,0.373,0.068,0.57
		c0,0.198-0.025,0.389-0.068,0.571c-0.234,0.985-1.057,1.714-2.038,1.714H13.42v1.143h2.106c1.549,0,2.836-1.212,3.104-2.808
		l-0.076-0.049c0,0,0.027,0.013,0.08,0.036c-0.002,0.003-0.002,0.008-0.004,0.011l0.055,0.035v-0.025
		c-0.016-0.007-0.039-0.016-0.051-0.021c0.031-0.198,0.051-0.4,0.051-0.607c0-0.18-0.016-0.354-0.041-0.526
		c-0.029-0.005-0.061-0.009-0.09-0.013v-0.031h0.082c0.002,0.015,0.006,0.029,0.008,0.044c0.014,0.002,0.027,0.007,0.041,0.009V13
		h-0.049c-0.252-1.62-1.545-2.856-3.11-2.856h-3.686c-1.745,0-3.16,1.535-3.16,3.428c0,1.271,0.639,2.378,1.586,2.97l0.244-1.197
		c-0.473-0.419-0.776-1.057-0.776-1.773C9.735,12.31,10.677,11.286,11.841,11.286z"/>
</g>
<path d="M15,24.943c-5.482,0-9.942-4.461-9.942-9.944c0-5.482,4.46-9.942,9.942-9.942s9.942,4.46,9.942,9.942
	C24.942,20.482,20.482,24.943,15,24.943z M15,6.557c-4.655,0-8.442,3.787-8.442,8.442c0,4.656,3.787,8.444,8.442,8.444
	s8.442-3.788,8.442-8.444C23.442,10.344,19.655,6.557,15,6.557z"/>
</svg>
