<?xml version="1.0" encoding="utf-8"?>
<!-- Generator: Adobe Illustrator 16.0.0, SVG Export Plug-In . SVG Version: 6.00 Build 0)  -->
<!DOCTYPE svg PUBLIC "-//W3C//DTD SVG 1.1//EN" "http://www.w3.org/Graphics/SVG/1.1/DTD/svg11.dtd">
<svg version="1.1" id="Layer_1" xmlns="http://www.w3.org/2000/svg" xmlns:xlink="http://www.w3.org/1999/xlink" x="0px" y="0px"
	 width="30px" height="30px" viewBox="0 0 30 30" enable-background="new 0 0 30 30" xml:space="preserve">
<g>
	<path d="M23.006,12.521l-0.395,1.929c0.764,0.676,1.254,1.699,1.254,2.85c0,2.034-1.52,3.682-3.395,3.682h-5.934
		c-1.875,0-3.394-1.647-3.394-3.682c0-2.031,1.519-3.681,3.394-3.681h3.393V11.78h-3.393c-2.811,0-5.09,2.472-5.09,5.52
		c0,3.05,2.279,5.521,5.09,5.521h5.936c2.809,0,5.09-2.473,5.09-5.521C25.562,15.254,24.533,13.474,23.006,12.521z"/>
	<path d="M10.297,9.019h5.937c1.579,0,2.903,1.174,3.28,2.762c0.07,0.294,0.113,0.602,0.113,0.919c0,0.319-0.043,0.626-0.113,0.92
		c-0.377,1.587-1.701,2.761-3.28,2.761H12.84v1.842h3.394c2.496,0,4.567-1.953,4.999-4.524l-0.123-0.078
		c0,0,0.045,0.021,0.129,0.058c-0.002,0.006-0.004,0.013-0.006,0.019l0.089,0.056v-0.04c-0.026-0.012-0.062-0.026-0.083-0.034
		c0.051-0.318,0.083-0.644,0.083-0.978c0-0.29-0.025-0.571-0.064-0.848c-0.049-0.007-0.099-0.013-0.147-0.02V11.78h0.133
		c0.004,0.023,0.009,0.047,0.013,0.071c0.022,0.004,0.045,0.01,0.066,0.014v-0.087h-0.079c-0.406-2.609-2.488-4.6-5.009-4.6h-5.937
		c-2.811,0-5.089,2.473-5.089,5.521c0,2.048,1.028,3.83,2.553,4.783l0.395-1.929c-0.763-0.674-1.251-1.702-1.251-2.855
		C6.904,10.667,8.422,9.019,10.297,9.019z"/>
</g>
</svg>
