<?xml version="1.0" encoding="UTF-8" standalone="no"?>
<!-- Generator: Adobe Illustrator 16.0.0, SVG Export Plug-In . SVG Version: 6.00 Build 0)  -->

<svg
   xmlns:dc="http://purl.org/dc/elements/1.1/"
   xmlns:cc="http://creativecommons.org/ns#"
   xmlns:rdf="http://www.w3.org/1999/02/22-rdf-syntax-ns#"
   xmlns:svg="http://www.w3.org/2000/svg"
   xmlns="http://www.w3.org/2000/svg"
   xmlns:sodipodi="http://sodipodi.sourceforge.net/DTD/sodipodi-0.dtd"
   xmlns:inkscape="http://www.inkscape.org/namespaces/inkscape"
   version="1.1"
   id="Layer_1"
   x="0px"
   y="0px"
   width="50px"
   height="50px"
   viewBox="0 0 50 50"
   enable-background="new 0 0 50 50"
   xml:space="preserve"
   inkscape:version="0.48.2 r9819"
   sodipodi:docname="stream.svg"><metadata
   id="metadata4534"><rdf:RDF><cc:Work
       rdf:about=""><dc:format>image/svg+xml</dc:format><dc:type
         rdf:resource="http://purl.org/dc/dcmitype/StillImage" /></cc:Work></rdf:RDF></metadata><defs
   id="defs4532" /><sodipodi:namedview
   pagecolor="#ffffff"
   bordercolor="#666666"
   borderopacity="1"
   objecttolerance="10"
   gridtolerance="10"
   guidetolerance="10"
   inkscape:pageopacity="0"
   inkscape:pageshadow="2"
   inkscape:window-width="1436"
   inkscape:window-height="856"
   id="namedview4530"
   showgrid="true"
   inkscape:zoom="20.02"
   inkscape:cx="19.895712"
   inkscape:cy="24.121211"
   inkscape:window-x="4"
   inkscape:window-y="0"
   inkscape:window-maximized="1"
   inkscape:current-layer="Layer_1"
   inkscape:snap-global="false"><inkscape:grid
     type="xygrid"
     id="grid4536" /></sodipodi:namedview>
<path
   d="m 14.438451,15.00929 c -0.0037,0.821195 -0.700238,1.468833 -1.606913,1.468833 l -7.0579149,0 c -0.9066757,0 -1.5770918,-0.647638 -1.5732798,-1.468833 l 0.033634,-7.24553 c 0.0038,-0.821196 0.7338716,-1.4858926 1.6405474,-1.4858926 l 6.9570139,0 c 0.906676,0 1.644361,0.6646966 1.640547,1.4858926 z"
   id="path4522"
   inkscape:connector-curvature="0"
   style="fill:#231f20"
   sodipodi:nodetypes="sssssssss" />
<path
   d="m 14.489255,33.799151 c 0,0.833006 -0.734122,1.551745 -1.641107,1.551745 l -6.8921007,0 c -0.9069856,0 -1.7083982,-0.626037 -1.7083982,-1.459041 l 0,-7.38056 c 0,-0.833005 0.7341223,-1.507248 1.6411076,-1.507248 l 6.9593913,0 c 0.906985,0 1.641107,0.674243 1.641107,1.507248 z"
   id="path4524"
   inkscape:connector-curvature="0"
   style="fill:#231f20"
   sodipodi:nodetypes="sssssssss" />
<path
   d="m 18.82268,26.418787 c -9.12e-4,-0.774229 0.605197,-1.400899 1.352898,-1.400899 l 20.067094,0 c 0.746799,0 1.351947,0.62667 1.352897,1.400899 l 0.01675,13.654518 c 9.1e-4,0.773295 -0.712631,1.508519 -1.459431,1.508519 l -19.977319,0 c -0.747701,0 -1.335546,-0.899341 -1.33614,-1.387597 z"
   id="path4526"
   inkscape:connector-curvature="0"
   style="fill:#231f20"
   sodipodi:nodetypes="sssssssss" />
<path
   d="m 18.723322,8.0877255 c -0.0019,-1.0005462 0.606523,-1.8104011 1.355864,-1.8104011 l 20.111077,0 c 0.748436,0 1.353953,0.8098551 1.355863,1.8104011 l 0.0168,8.7907855 c 0.0019,1.000547 -0.624222,1.826733 -1.372658,1.826733 l -20.111077,0 c -0.749341,0 -1.337181,-0.714839 -1.339069,-1.715384 z"
   id="path4528"
   inkscape:connector-curvature="0"
   style="fill:#231f20"
   sodipodi:nodetypes="sssssssss" />
</svg>