<?xml version="1.0" encoding="UTF-8" standalone="no"?>
<!-- Generator: Adobe Illustrator 16.0.0, SVG Export Plug-In . SVG Version: 6.00 Build 0)  -->

<svg
   xmlns:dc="http://purl.org/dc/elements/1.1/"
   xmlns:cc="http://creativecommons.org/ns#"
   xmlns:rdf="http://www.w3.org/1999/02/22-rdf-syntax-ns#"
   xmlns:svg="http://www.w3.org/2000/svg"
   xmlns="http://www.w3.org/2000/svg"
   xmlns:sodipodi="http://sodipodi.sourceforge.net/DTD/sodipodi-0.dtd"
   xmlns:inkscape="http://www.inkscape.org/namespaces/inkscape"
   version="1.1"
   id="Layer_1"
   x="0px"
   y="0px"
   width="50px"
   height="50px"
   viewBox="0 0 50 50"
   enable-background="new 0 0 50 50"
   xml:space="preserve"
   inkscape:version="0.48.2 r9819"
   sodipodi:docname="table.svg"><metadata
   id="metadata3149"><rdf:RDF><cc:Work
       rdf:about=""><dc:format>image/svg+xml</dc:format><dc:type
         rdf:resource="http://purl.org/dc/dcmitype/StillImage" /><dc:title /></cc:Work></rdf:RDF></metadata><defs
   id="defs3147" /><sodipodi:namedview
   pagecolor="#ffffff"
   bordercolor="#666666"
   borderopacity="1"
   objecttolerance="10"
   gridtolerance="10"
   guidetolerance="10"
   inkscape:pageopacity="0"
   inkscape:pageshadow="2"
   inkscape:window-width="1436"
   inkscape:window-height="856"
   id="namedview3145"
   showgrid="true"
   inkscape:snap-global="false"
   inkscape:snap-grids="true"
   inkscape:zoom="15"
   inkscape:cx="27.786427"
   inkscape:cy="24.347258"
   inkscape:window-x="4"
   inkscape:window-y="0"
   inkscape:window-maximized="1"
   inkscape:current-layer="Layer_1"><inkscape:grid
     type="xygrid"
     id="grid3151" /></sodipodi:namedview>
<path
   d="M 46.425,9 3.9183333,9 C 1.9413333,9 0,11.010667 0,13.153667 0,22.858 0,-54.273942 0,40 c 0,2.144 2.023,4 4,4 l 42,0 c 1.978,0 3.999209,-1.856 4,-4 L 50.01,12.887 C 50.01079,10.745 48.403,9 46.425,9 z m -22.958333,5.6 0,11.933333 L 3,26.533333 3,14.6 z m 3.2,0 20.333333,0 0,11.933333 -20.333333,0 z M 3,40.466667 C 3,6.1304918 3,33.066667 3,29.4 l 20.466667,0 0,12.066667 -19.466667,0 c -0.278,10e-4 -1,-0.621 -1,-1 z m 43,1 -19.333333,0 0,-12.066667 L 47,29.4 47,40.466667 c 0,0.379 -0.724,1 -1,1 z"
   id="path3143"
   inkscape:connector-curvature="0"
   sodipodi:nodetypes="sssssssssccccccccccsccccsscccss" />
</svg>