<?xml version="1.0" encoding="utf-8"?>
<!-- Generator: Adobe Illustrator 16.0.0, SVG Export Plug-In . SVG Version: 6.00 Build 0)  -->
<!DOCTYPE svg PUBLIC "-//W3C//DTD SVG 1.1//EN" "http://www.w3.org/Graphics/SVG/1.1/DTD/svg11.dtd">
<svg version="1.1" id="Layer_1" xmlns="http://www.w3.org/2000/svg" xmlns:xlink="http://www.w3.org/1999/xlink" x="0px" y="0px"
	 width="50px" height="50px" viewBox="0 0 50 50" enable-background="new 0 0 50 50" xml:space="preserve">
<path d="M39.307,21.175c0.609,0,1.148-0.226,1.604-0.672c0.457-0.446,0.688-0.977,0.688-1.578c0-0.601-0.232-1.133-0.688-1.579
	c-0.456-0.446-0.996-0.672-1.604-0.672h-4.119l0.752-4.431c0.192-1.135,0.328-1.977,0.406-2.524
	c0.075-0.544,0.122-0.883,0.144-1.018c0.02-0.151,0.03-0.376,0.03-0.688c0-0.378-0.205-0.771-0.625-1.209
	c-0.418-0.428-0.959-0.646-1.607-0.646c-0.641,0-1.178,0.184-1.592,0.547c-0.41,0.361-0.663,0.784-0.752,1.265l-1.404,8.704h-6.771
	l0.754-4.431c0.193-1.135,0.327-1.977,0.405-2.524c0.076-0.544,0.123-0.883,0.144-1.018c0.022-0.151,0.032-0.376,0.032-0.688
	c0-0.378-0.205-0.771-0.625-1.209c-0.418-0.428-0.959-0.646-1.608-0.646c-0.641,0-1.177,0.184-1.592,0.547
	c-0.41,0.361-0.663,0.784-0.752,1.265l-1.405,8.704h-4.843c-0.61,0-1.149,0.226-1.603,0.672c-0.456,0.447-0.687,0.978-0.687,1.579
	c0,0.601,0.231,1.131,0.687,1.578c0.455,0.446,0.994,0.672,1.603,0.672H18.4l-1.296,8.05H12.26c-0.609,0-1.147,0.228-1.604,0.672
	c-0.455,0.447-0.686,0.979-0.686,1.578c0,0.604,0.231,1.131,0.687,1.582c0.456,0.443,0.994,0.668,1.604,0.668h4.12
	c-1.194,7.289-1.335,8.437-1.335,8.661c0,0.417,0.233,0.845,0.692,1.274c0.454,0.424,0.992,0.638,1.598,0.638
	s1.124-0.196,1.54-0.582c0.406-0.376,0.656-0.807,0.746-1.286l1.406-8.705H27.8c-1.196,7.289-1.336,8.437-1.336,8.661
	c0,0.417,0.231,0.845,0.69,1.274c0.455,0.424,0.992,0.638,1.599,0.638s1.124-0.196,1.54-0.582c0.406-0.376,0.657-0.807,0.747-1.286
	l1.405-8.705h4.843c0.61,0,1.147-0.225,1.604-0.668c0.455-0.449,0.687-0.979,0.687-1.582c0-0.599-0.231-1.132-0.687-1.578
	c-0.459-0.444-0.996-0.672-1.604-0.672h-4.121l1.296-8.05H39.307z M29.818,21.175l-1.297,8.05H21.75l1.296-8.05H29.818z"/>
</svg>
