<?xml version="1.0" encoding="utf-8"?>
<!-- Generator: Adobe Illustrator 16.0.0, SVG Export Plug-In . SVG Version: 6.00 Build 0)  -->
<!DOCTYPE svg PUBLIC "-//W3C//DTD SVG 1.1//EN" "http://www.w3.org/Graphics/SVG/1.1/DTD/svg11.dtd">
<svg version="1.1" id="Layer_1" xmlns="http://www.w3.org/2000/svg" xmlns:xlink="http://www.w3.org/1999/xlink" x="0px" y="0px"
	 width="50px" height="50px" viewBox="0 0 50 50" enable-background="new 0 0 50 50" xml:space="preserve">
<path d="M40.671,2.858h-0.388c-0.146,0-0.286,0.016-0.426,0.036H10.142c-0.139-0.02-0.28-0.036-0.425-0.036H9.329
	c-1.378,0-2.5,0.944-2.5,2.104v8.763c0,1.161,1.122,2.104,2.5,2.104h0.388c1.379,0,2.5-0.943,2.5-2.103v-5.59h10.089
	c0,0.04-0.006,0.077-0.006,0.117V41.26c0,0.068,0.009,0.133,0.011,0.2h-5.527c-1.507,0-2.735,1.174-2.735,2.617
	c0,1.446,1.227,2.623,2.735,2.623h17.188c1.508,0,2.732-1.177,2.732-2.623c0-1.443-1.227-2.617-2.732-2.617h-6.385
	c0.001-0.067,0.012-0.132,0.012-0.2V8.253c0-0.041-0.007-0.077-0.007-0.117h10.191v5.589c0,1.161,1.12,2.104,2.5,2.104h0.388
	c1.379,0,2.5-0.943,2.5-2.103V4.962C43.171,3.801,42.05,2.858,40.671,2.858z"/>
</svg>
