<?xml version="1.0" encoding="UTF-8" standalone="no"?>
<!-- Generator: Adobe Illustrator 16.0.0, SVG Export Plug-In . SVG Version: 6.00 Build 0)  -->

<svg
   xmlns:dc="http://purl.org/dc/elements/1.1/"
   xmlns:cc="http://creativecommons.org/ns#"
   xmlns:rdf="http://www.w3.org/1999/02/22-rdf-syntax-ns#"
   xmlns:svg="http://www.w3.org/2000/svg"
   xmlns="http://www.w3.org/2000/svg"
   xmlns:sodipodi="http://sodipodi.sourceforge.net/DTD/sodipodi-0.dtd"
   xmlns:inkscape="http://www.inkscape.org/namespaces/inkscape"
   version="1.1"
   id="Layer_1"
   x="0px"
   y="0px"
   width="50px"
   height="50px"
   viewBox="0 0 50 50"
   enable-background="new 0 0 50 50"
   xml:space="preserve"
   inkscape:version="0.48.2 r9819"
   sodipodi:docname="check.svg"><metadata
   id="metadata3149"><rdf:RDF><cc:Work
       rdf:about=""><dc:format>image/svg+xml</dc:format><dc:type
         rdf:resource="http://purl.org/dc/dcmitype/StillImage" /><dc:title></dc:title></cc:Work></rdf:RDF></metadata><defs
   id="defs3147" /><sodipodi:namedview
   pagecolor="#ffffff"
   bordercolor="#666666"
   borderopacity="1"
   objecttolerance="10"
   gridtolerance="10"
   guidetolerance="10"
   inkscape:pageopacity="0"
   inkscape:pageshadow="2"
   inkscape:window-width="1436"
   inkscape:window-height="856"
   id="namedview3145"
   showgrid="true"
   inkscape:zoom="30.11"
   inkscape:cx="13.490223"
   inkscape:cy="9.4749209"
   inkscape:window-x="4"
   inkscape:window-y="0"
   inkscape:window-maximized="1"
   inkscape:current-layer="g3139"><inkscape:grid
     type="xygrid"
     id="grid3151" /></sodipodi:namedview>
<g
   id="g3139"
   transform="translate(-1.217,-0.268)">
	
	<path
   d="m 41.217,4.268 -30,0 c -2.773,0 -6,3.231 -6,6 l 0,30 c 0,2.769 3.227,6 6,6 l 30,0 c 2.775,0 6,-3.23 6,-6 l 0,-30 c 0,-2.768 -3.226,-6 -6,-6 z m -33,36 0,-30 c 0,-1 2,-3 3,-3 l 30,0 c 1,0 3,2 3,3 l 0,30 c 0,1 -2,3 -3,3 l -30,0 c -1,0 -3,-2 -3,-3 z"
   inkscape:connector-curvature="0"
   sodipodi:nodetypes="sssssssssccccccccc"
   id="path3143" />
</g>
</svg>