<?xml version="1.0" encoding="utf-8"?>
<!-- Generator: Adobe Illustrator 16.0.0, SVG Export Plug-In . SVG Version: 6.00 Build 0)  -->
<!DOCTYPE svg PUBLIC "-//W3C//DTD SVG 1.1//EN" "http://www.w3.org/Graphics/SVG/1.1/DTD/svg11.dtd">
<svg version="1.1" id="Layer_1" xmlns="http://www.w3.org/2000/svg" xmlns:xlink="http://www.w3.org/1999/xlink" x="0px" y="0px"
	 width="50px" height="50px" viewBox="0 0 50 50" enable-background="new 0 0 50 50" xml:space="preserve">
<g>
	<path fill="#231F20" d="M41.65,35.786v3.426H8.344v-3.426c0,0,0-2.032,4.144-3.865c1.992-0.876,4.98-3.187,9.362-3.983
		c-1.155-1.195-1.992-3.108-2.868-5.339c-0.518-1.315-0.438-2.431-0.438-3.984c0-1.155-0.199-3.028,0.08-4.063
		c0.957-3.466,3.426-4.422,6.335-4.422c2.869,0,5.338,0.956,6.294,4.422c0.319,1.036,0.08,2.868,0.08,4.063
		c0,1.554,0.08,2.669-0.398,3.984c-0.877,2.23-1.753,4.104-2.868,5.339c4.422,0.757,7.37,3.067,9.402,3.983
		C41.611,33.754,41.65,35.786,41.65,35.786z"/>
</g>
</svg>
